<svg width="102" height="102" viewBox="0 0 102 102" fill="none" xmlns="http://www.w3.org/2000/svg">
<rect width="102" height="102" rx="20" fill="#3ADAD9"/>
<g clip-path="url(#clip0_839_2184)">
<path d="M50.6 33.0868C49.7513 33.0868 49.0625 32.398 49.0625 31.5493V27.5375C49.0625 26.6888 49.7513 26 50.6 26C51.4487 26 52.1375 26.6888 52.1375 27.5375V31.5493C52.1375 32.398 51.4487 33.0868 50.6 33.0868Z" fill="white"/>
<path d="M64.0704 38.6667C63.6768 38.6667 63.2832 38.517 62.9839 38.2157C62.3833 37.615 62.3833 36.6413 62.9839 36.0406L65.8211 33.2034C66.4218 32.6028 67.3955 32.6028 67.9962 33.2034C68.5968 33.8041 68.5968 34.7778 67.9962 35.3785L65.159 38.2157C64.8576 38.515 64.464 38.6667 64.0704 38.6667Z" fill="white"/>
<path d="M73.6624 52.1375H69.6505C68.8018 52.1375 68.113 51.4487 68.113 50.6C68.113 49.7513 68.8018 49.0625 69.6505 49.0625H73.6624C74.5111 49.0625 75.1999 49.7513 75.1999 50.6C75.1999 51.4487 74.5111 52.1375 73.6624 52.1375Z" fill="white"/>
<path d="M66.9076 68.445C66.514 68.445 66.1204 68.2953 65.8211 67.994L62.9839 65.1568C62.3833 64.5561 62.3833 63.5824 62.9839 62.9817C63.5846 62.3811 64.5583 62.3811 65.159 62.9817L67.9962 65.8189C68.5968 66.4196 68.5968 67.3933 67.9962 67.994C67.6948 68.2953 67.3012 68.445 66.9076 68.445Z" fill="white"/>
<path d="M34.2924 68.445C33.8988 68.445 33.5052 68.2953 33.2059 67.994C32.6052 67.3933 32.6052 66.4196 33.2059 65.8189L36.0431 62.9817C36.6437 62.3811 37.6175 62.3811 38.2181 62.9817C38.8187 63.5824 38.8187 64.5561 38.2181 65.1568L35.3809 67.994C35.0796 68.2953 34.686 68.445 34.2924 68.445Z" fill="white"/>
<path d="M31.5493 52.1375H27.5375C26.6888 52.1375 26 51.4487 26 50.6C26 49.7513 26.6888 49.0625 27.5375 49.0625H31.5493C32.398 49.0625 33.0868 49.7513 33.0868 50.6C33.0868 51.4487 32.398 52.1375 31.5493 52.1375Z" fill="white"/>
<path d="M37.1296 38.6667C36.736 38.6667 36.3424 38.517 36.0431 38.2157L33.2059 35.3785C32.6052 34.7778 32.6052 33.8041 33.2059 33.2034C33.8065 32.6028 34.7803 32.6028 35.3809 33.2034L38.2181 36.0406C38.8187 36.6413 38.8187 37.615 38.2181 38.2157C37.9147 38.515 37.5232 38.6667 37.1296 38.6667Z" fill="white"/>
<path d="M56.7499 69.0498V71.6123C56.7499 73.5803 55.1304 75.1998 53.1624 75.1998H48.0374C46.3155 75.1998 44.45 73.8878 44.45 71.0178V69.0498H56.7499Z" fill="white"/>
<path d="M59.6404 39.4481C56.2784 36.7216 51.8504 35.6556 47.5249 36.5781C42.0924 37.7056 37.6849 42.1336 36.5574 47.5661C35.4094 53.1421 37.5004 58.6771 41.9694 62.0596C43.1789 62.9616 44.0194 64.3556 44.3064 65.9751V65.9956C44.3474 65.9751 44.4089 65.9751 44.4499 65.9751H56.7499C56.7909 65.9751 56.8114 65.9751 56.8524 65.9956V65.9751C57.1394 64.4171 58.0619 62.9821 59.4764 61.8751C62.9409 59.1281 64.9499 55.0281 64.9499 50.6001C64.9499 46.2541 63.0229 42.1951 59.6404 39.4481ZM49.8312 50.0876H51.3687C53.7713 50.0876 55.7249 52.0413 55.7249 54.4439C55.7249 56.582 54.1731 58.3573 52.1374 58.7222V61.3626C52.1374 62.2113 51.4486 62.9001 50.5999 62.9001C49.7512 62.9001 49.0624 62.2113 49.0624 61.3626V58.8001H47.0124C46.1637 58.8001 45.4749 58.1113 45.4749 57.2626C45.4749 56.4139 46.1637 55.7251 47.0124 55.7251H51.3687C52.0759 55.7251 52.6499 55.1511 52.6499 54.4439C52.6499 53.7366 52.0759 53.1626 51.3687 53.1626H49.8312C47.4286 53.1626 45.4749 51.209 45.4749 48.8064C45.4749 46.6682 47.0268 44.8929 49.0624 44.528V41.8876C49.0624 41.0389 49.7512 40.3501 50.5999 40.3501C51.4486 40.3501 52.1374 41.0389 52.1374 41.8876V44.4501H54.1874C55.0361 44.4501 55.7249 45.1389 55.7249 45.9876C55.7249 46.8363 55.0361 47.5251 54.1874 47.5251H49.8312C49.1239 47.5251 48.5499 48.0991 48.5499 48.8064C48.5499 49.5136 49.1239 50.0876 49.8312 50.0876Z" fill="white"/>
<path d="M44.3064 65.9746H44.4507C44.4094 65.9746 44.3476 65.9746 44.3064 65.9952V65.9746Z" fill="white"/>
<path d="M56.854 65.9746V65.9954C56.8124 65.9746 56.7916 65.9746 56.75 65.9746H56.854Z" fill="white"/>
</g>
<defs>
<clipPath id="clip0_839_2184">
<rect width="49.2" height="49.2" fill="white" transform="translate(26 26)"/>
</clipPath>
</defs>
</svg>
