<svg width="102" height="102" viewBox="0 0 102 102" fill="none" xmlns="http://www.w3.org/2000/svg">
<rect width="102" height="102" rx="26" fill="#FED369"/>
<path d="M32.3049 61.0047C32.5876 61.005 32.8677 60.9495 33.1289 60.8413C33.3901 60.7332 33.6273 60.5744 33.827 60.3743L45.9374 48.2638L50.8728 53.1993C51.0727 53.3992 51.31 53.5577 51.5712 53.6659C51.8323 53.7741 52.1122 53.8298 52.3949 53.8298C52.6776 53.8298 52.9575 53.7741 53.2187 53.6659C53.4798 53.5577 53.7171 53.3992 53.917 53.1993L67.4616 39.6547L67.4608 44.5022C67.4608 45.0731 67.6876 45.6206 68.0912 46.0242C68.4949 46.4279 69.0424 46.6547 69.6133 46.6547C70.1842 46.6547 70.7317 46.4279 71.1353 46.0242C71.539 45.6206 71.7658 45.0731 71.7658 44.5022L71.7674 34.4572C71.7674 33.8863 71.5406 33.3388 71.1369 32.9351C70.7333 32.5315 70.1858 32.3047 69.6149 32.3047H59.5699C58.999 32.3047 58.4515 32.5315 58.0479 32.9351C57.6442 33.3388 57.4174 33.8863 57.4174 34.4572C57.4174 35.0281 57.6442 35.5756 58.0479 35.9792C58.4515 36.3829 58.999 36.6097 59.5699 36.6097H64.4183L52.3949 48.6331L47.4595 43.6976C47.2596 43.4977 47.0223 43.3391 46.7612 43.231C46.5 43.1228 46.2201 43.0671 45.9374 43.0671C45.6547 43.0671 45.3748 43.1228 45.1137 43.231C44.8525 43.3391 44.6152 43.4977 44.4153 43.6976L30.7828 57.3301C30.4818 57.6311 30.2768 58.0147 30.1937 58.4322C30.1106 58.8498 30.1533 59.2826 30.3162 59.6759C30.4791 60.0692 30.755 60.4054 31.109 60.6419C31.463 60.8785 31.8792 61.0047 32.3049 61.0047Z" fill="white"/>
<path d="M69.6148 65.3096H32.3048C31.734 65.3096 31.1865 65.5364 30.7828 65.94C30.3791 66.3437 30.1523 66.8912 30.1523 67.4621C30.1523 68.0329 30.3791 68.5804 30.7828 68.9841C31.1865 69.3878 31.734 69.6146 32.3048 69.6146H69.6148C70.1857 69.6146 70.7332 69.3878 71.1369 68.9841C71.5405 68.5804 71.7673 68.0329 71.7673 67.4621C71.7673 66.8912 71.5405 66.3437 71.1369 65.94C70.7332 65.5364 70.1857 65.3096 69.6148 65.3096Z" fill="white"/>
</svg>
