<svg width="730" height="495" viewBox="0 0 730 495" fill="none" xmlns="http://www.w3.org/2000/svg">
<g filter="url(#filter0_d_839_2544)">
<rect x="145.947" y="57" width="437.372" height="201.864" rx="19.1456" fill="white"/>
</g>
<path d="M182.922 89.8371V91.8961H180.863V90.4427C180.863 89.8775 180.957 89.3593 181.146 88.8883C181.334 88.4173 181.65 87.9597 182.094 87.5156L182.862 88.1212C182.337 88.6999 182.041 89.2719 181.973 89.8371H182.922ZM186.273 89.8371V91.8961H184.214V90.4427C184.214 89.8775 184.308 89.3593 184.497 88.8883C184.685 88.4173 185.001 87.9597 185.445 87.5156L186.212 88.1212C185.688 88.6999 185.392 89.2719 185.324 89.8371H186.273ZM208.139 87.6368H209.754L204.788 101.868H203.375L199.318 90.2206L195.261 101.868H193.868L188.882 87.6368H190.557L194.594 99.5265L198.733 87.6368L199.984 87.657L204.062 99.5467L208.139 87.6368ZM219.462 97.2051H212.276C212.33 98.349 212.639 99.217 213.205 99.8092C213.77 100.388 214.571 100.677 215.607 100.677C216.751 100.677 217.8 100.287 218.756 99.5064L219.301 100.697C218.87 101.101 218.319 101.424 217.646 101.666C216.973 101.895 216.286 102.009 215.587 102.009C214.052 102.009 212.841 101.559 211.953 100.657C211.078 99.7553 210.641 98.5105 210.641 96.9225C210.641 95.9132 210.836 95.025 211.226 94.2579C211.617 93.4774 212.162 92.8718 212.861 92.4411C213.575 92.0105 214.382 91.7952 215.284 91.7952C216.589 91.7952 217.612 92.2258 218.352 93.0871C219.092 93.9349 219.462 95.1057 219.462 96.5995V97.2051ZM215.304 93.0669C214.443 93.0669 213.75 93.3361 213.225 93.8744C212.713 94.4127 212.411 95.173 212.316 96.1554H218.029C218.002 95.1596 217.753 94.3992 217.282 93.8744C216.811 93.3361 216.152 93.0669 215.304 93.0669ZM236.119 97.2051H228.933C228.987 98.349 229.296 99.217 229.862 99.8092C230.427 100.388 231.227 100.677 232.264 100.677C233.408 100.677 234.457 100.287 235.413 99.5064L235.958 100.697C235.527 101.101 234.975 101.424 234.303 101.666C233.63 101.895 232.943 102.009 232.244 102.009C230.709 102.009 229.498 101.559 228.61 100.657C227.735 99.7553 227.298 98.5105 227.298 96.9225C227.298 95.9132 227.493 95.025 227.883 94.2579C228.274 93.4774 228.819 92.8718 229.518 92.4411C230.232 92.0105 231.039 91.7952 231.941 91.7952C233.246 91.7952 234.269 92.2258 235.009 93.0871C235.749 93.9349 236.119 95.1057 236.119 96.5995V97.2051ZM231.961 93.0669C231.1 93.0669 230.407 93.3361 229.882 93.8744C229.37 94.4127 229.068 95.173 228.973 96.1554H234.686C234.659 95.1596 234.41 94.3992 233.939 93.8744C233.468 93.3361 232.809 93.0669 231.961 93.0669ZM243.878 91.7952C246.233 91.7952 247.41 93.0938 247.41 95.6911V101.868H245.775V95.7921C245.775 94.8769 245.594 94.2108 245.23 93.7936C244.88 93.3764 244.315 93.1678 243.535 93.1678C242.633 93.1678 241.913 93.4437 241.375 93.9955C240.836 94.5472 240.567 95.2941 240.567 96.2362V101.868H238.932V92.0374H240.547V93.6523C240.87 93.0467 241.321 92.5892 241.9 92.2796C242.478 91.9567 243.138 91.7952 243.878 91.7952ZM254.14 102.009C252.484 102.009 251.172 101.586 250.203 100.738L250.748 99.5265C251.273 99.9437 251.805 100.247 252.343 100.435C252.895 100.61 253.514 100.697 254.2 100.697C254.927 100.697 255.479 100.576 255.856 100.334C256.246 100.078 256.441 99.715 256.441 99.2439C256.441 98.8537 256.313 98.5441 256.057 98.3154C255.802 98.0866 255.378 97.9049 254.786 97.7703L253.13 97.3868C252.296 97.1984 251.657 96.8754 251.213 96.4178C250.769 95.9603 250.547 95.3951 250.547 94.7222C250.547 93.8474 250.89 93.1409 251.576 92.6026C252.262 92.0643 253.178 91.7952 254.321 91.7952C255.008 91.7952 255.66 91.9095 256.28 92.1383C256.899 92.3536 257.417 92.6699 257.834 93.0871L257.289 94.2781C256.387 93.511 255.398 93.1275 254.321 93.1275C253.635 93.1275 253.097 93.262 252.707 93.5312C252.33 93.7869 252.141 94.1502 252.141 94.6213C252.141 95.0115 252.256 95.3278 252.484 95.57C252.727 95.7988 253.11 95.9737 253.635 96.0949L255.311 96.4986C256.226 96.7139 256.905 97.0436 257.349 97.4877C257.794 97.9184 258.016 98.4836 258.016 99.1834C258.016 100.045 257.666 100.731 256.966 101.242C256.28 101.754 255.337 102.009 254.14 102.009ZM269.188 92.0374V101.868H267.593V100.193C267.284 100.785 266.846 101.236 266.281 101.545C265.729 101.855 265.104 102.009 264.404 102.009C263.233 102.009 262.352 101.686 261.759 101.041C261.167 100.381 260.871 99.4122 260.871 98.1337V92.0374H262.506V98.0933C262.506 98.9681 262.681 99.614 263.031 100.031C263.381 100.435 263.933 100.637 264.687 100.637C265.548 100.637 266.241 100.361 266.766 99.8092C267.291 99.2439 267.553 98.5038 267.553 97.5887V92.0374H269.188ZM278.202 93.2082L277.132 93.3091C276.123 93.4033 275.39 93.7196 274.932 94.2579C274.488 94.7962 274.266 95.4624 274.266 96.2563V101.868H272.631V92.0374H274.226V93.7532C274.777 92.6093 275.861 91.9701 277.476 91.8355L278.061 91.7952L278.202 93.2082ZM288.19 97.2051H281.004C281.057 98.349 281.367 99.217 281.932 99.8092C282.497 100.388 283.298 100.677 284.334 100.677C285.478 100.677 286.528 100.287 287.483 99.5064L288.028 100.697C287.598 101.101 287.046 101.424 286.373 101.666C285.7 101.895 285.014 102.009 284.314 102.009C282.78 102.009 281.569 101.559 280.681 100.657C279.806 99.7553 279.368 98.5105 279.368 96.9225C279.368 95.9132 279.564 95.025 279.954 94.2579C280.344 93.4774 280.889 92.8718 281.589 92.4411C282.302 92.0105 283.11 91.7952 284.011 91.7952C285.317 91.7952 286.34 92.2258 287.08 93.0871C287.82 93.9349 288.19 95.1057 288.19 96.5995V97.2051ZM284.032 93.0669C283.17 93.0669 282.477 93.3361 281.952 93.8744C281.441 94.4127 281.138 95.173 281.044 96.1554H286.757C286.73 95.1596 286.481 94.3992 286.01 93.8744C285.539 93.3361 284.879 93.0669 284.032 93.0669ZM300.931 100.697C301.227 100.697 301.523 100.677 301.819 100.637L301.738 101.929C301.429 101.983 301.092 102.009 300.729 102.009C299.545 102.009 298.65 101.7 298.044 101.081C297.452 100.462 297.156 99.6006 297.156 98.497V93.3293H295.238V92.0374H297.156V89.0498H298.791V92.0374H301.577V93.3293H298.791V98.3759C298.791 99.9235 299.504 100.697 300.931 100.697ZM308.82 91.7952C311.175 91.7952 312.353 93.0938 312.353 95.6911V101.868H310.718V95.7921C310.718 94.8769 310.536 94.2108 310.173 93.7936C309.823 93.3764 309.258 93.1678 308.477 93.1678C307.576 93.1678 306.856 93.4437 306.317 93.9955C305.779 94.5472 305.51 95.2941 305.51 96.2362V101.868H303.875V87.6368H305.51V93.6119C305.833 93.0198 306.277 92.569 306.842 92.2594C307.421 91.9499 308.08 91.7952 308.82 91.7952ZM319.749 91.7952C321 91.7952 321.929 92.1181 322.534 92.7641C323.153 93.3966 323.463 94.3656 323.463 95.6709V101.868H321.868V100.193C321.612 100.771 321.222 101.222 320.697 101.545C320.172 101.855 319.567 102.009 318.88 102.009C318.248 102.009 317.663 101.882 317.124 101.626C316.599 101.37 316.182 101.014 315.873 100.556C315.563 100.098 315.408 99.5938 315.408 99.0421C315.408 98.3019 315.597 97.73 315.974 97.3262C316.35 96.909 316.97 96.613 317.831 96.438C318.692 96.2496 319.89 96.1554 321.424 96.1554H321.868V95.4893C321.868 94.6684 321.7 94.0762 321.363 93.7129C321.027 93.3361 320.482 93.1476 319.728 93.1476C318.598 93.1476 317.474 93.4975 316.357 94.1973L315.812 93.0063C316.324 92.643 316.936 92.3536 317.649 92.1383C318.376 91.9095 319.076 91.7952 319.749 91.7952ZM319.103 100.718C319.91 100.718 320.569 100.448 321.081 99.9101C321.606 99.3583 321.868 98.6518 321.868 97.7905V97.2051H321.505C320.32 97.2051 319.419 97.2589 318.8 97.3666C318.181 97.4608 317.737 97.629 317.467 97.8713C317.212 98.1 317.084 98.4432 317.084 98.9008C317.084 99.4256 317.272 99.863 317.649 100.213C318.039 100.549 318.524 100.718 319.103 100.718ZM331.18 100.697C331.476 100.697 331.772 100.677 332.068 100.637L331.987 101.929C331.677 101.983 331.341 102.009 330.978 102.009C329.793 102.009 328.898 101.7 328.293 101.081C327.701 100.462 327.405 99.6006 327.405 98.497V93.3293H325.487V92.0374H327.405V89.0498H329.04V92.0374H331.825V93.3293H329.04V98.3759C329.04 99.9235 329.753 100.697 331.18 100.697ZM343.729 91.7952C344.98 91.7952 345.909 92.1181 346.514 92.7641C347.133 93.3966 347.443 94.3656 347.443 95.6709V101.868H345.848V100.193C345.592 100.771 345.202 101.222 344.677 101.545C344.152 101.855 343.547 102.009 342.86 102.009C342.228 102.009 341.643 101.882 341.104 101.626C340.579 101.37 340.162 101.014 339.853 100.556C339.543 100.098 339.388 99.5938 339.388 99.0421C339.388 98.3019 339.577 97.73 339.954 97.3262C340.33 96.909 340.95 96.613 341.811 96.438C342.672 96.2496 343.87 96.1554 345.404 96.1554H345.848V95.4893C345.848 94.6684 345.68 94.0762 345.343 93.7129C345.007 93.3361 344.462 93.1476 343.708 93.1476C342.578 93.1476 341.454 93.4975 340.337 94.1973L339.792 93.0063C340.304 92.643 340.916 92.3536 341.629 92.1383C342.356 91.9095 343.056 91.7952 343.729 91.7952ZM343.083 100.718C343.89 100.718 344.549 100.448 345.061 99.9101C345.586 99.3583 345.848 98.6518 345.848 97.7905V97.2051H345.485C344.3 97.2051 343.399 97.2589 342.78 97.3666C342.161 97.4608 341.717 97.629 341.447 97.8713C341.192 98.1 341.064 98.4432 341.064 98.9008C341.064 99.4256 341.252 99.863 341.629 100.213C342.019 100.549 342.504 100.718 343.083 100.718ZM355.785 91.7952C358.14 91.7952 359.318 93.0938 359.318 95.6911V101.868H357.683V95.7921C357.683 94.8769 357.501 94.2108 357.138 93.7936C356.788 93.3764 356.223 93.1678 355.442 93.1678C354.54 93.1678 353.82 93.4437 353.282 93.9955C352.744 94.5472 352.475 95.2941 352.475 96.2362V101.868H350.84V92.0374H352.455V93.6523C352.778 93.0467 353.228 92.5892 353.807 92.2796C354.386 91.9567 355.045 91.7952 355.785 91.7952ZM369.762 92.0576H371.397L365.583 105.502H363.907L365.563 101.747L361.404 92.0576H363.14L366.431 100.092L369.762 92.0576ZM379.097 101.868V92.0374H380.733V101.868H379.097ZM378.936 87.7781H380.914V89.615H378.936V87.7781ZM389.139 91.7952C391.494 91.7952 392.671 93.0938 392.671 95.6911V101.868H391.036V95.7921C391.036 94.8769 390.854 94.2108 390.491 93.7936C390.141 93.3764 389.576 93.1678 388.795 93.1678C387.894 93.1678 387.174 93.4437 386.635 93.9955C386.097 94.5472 385.828 95.2941 385.828 96.2362V101.868H384.193V92.0374H385.808V93.6523C386.131 93.0467 386.582 92.5892 387.16 92.2796C387.739 91.9567 388.398 91.7952 389.139 91.7952ZM398.25 92.0374H401.036V93.3293H398.25V101.868H396.615V93.3293H394.697V92.0374H396.615V91.7144C396.615 90.409 396.938 89.4199 397.584 88.747C398.243 88.0741 399.252 87.6973 400.612 87.6166L401.419 87.5762L401.54 88.8479L400.612 88.9085C399.791 88.9623 399.192 89.1978 398.815 89.615C398.438 90.0188 398.25 90.6445 398.25 91.4924V92.0374ZM407.076 102.009C406.148 102.009 405.327 101.801 404.613 101.384C403.914 100.967 403.369 100.374 402.978 99.6073C402.602 98.8267 402.413 97.9251 402.413 96.9023C402.413 95.8795 402.602 94.9846 402.978 94.2175C403.369 93.437 403.914 92.8381 404.613 92.4209C405.327 92.0038 406.148 91.7952 407.076 91.7952C408.005 91.7952 408.826 92.0038 409.539 92.4209C410.252 92.8381 410.797 93.437 411.174 94.2175C411.564 94.9846 411.759 95.8795 411.759 96.9023C411.759 97.9251 411.564 98.8267 411.174 99.6073C410.797 100.374 410.252 100.967 409.539 101.384C408.826 101.801 408.005 102.009 407.076 102.009ZM407.076 100.657C408.045 100.657 408.785 100.341 409.297 99.7082C409.822 99.0623 410.084 98.127 410.084 96.9023C410.084 95.7046 409.822 94.7827 409.297 94.1368C408.772 93.4774 408.032 93.1476 407.076 93.1476C406.121 93.1476 405.381 93.4774 404.856 94.1368C404.331 94.7827 404.068 95.7046 404.068 96.9023C404.068 98.1135 404.324 99.0421 404.836 99.688C405.36 100.334 406.107 100.657 407.076 100.657ZM420.171 93.2082L419.101 93.3091C418.092 93.4033 417.358 93.7196 416.901 94.2579C416.457 94.7962 416.235 95.4624 416.235 96.2563V101.868H414.599V92.0374H416.194V93.7532C416.746 92.6093 417.829 91.9701 419.444 91.8355L420.03 91.7952L420.171 93.2082ZM433.061 91.7952C435.241 91.7952 436.331 93.0938 436.331 95.6911V101.868H434.696V95.7719C434.696 94.8702 434.534 94.2108 434.211 93.7936C433.902 93.3764 433.397 93.1678 432.697 93.1678C431.876 93.1678 431.23 93.4437 430.759 93.9955C430.288 94.5472 430.053 95.3009 430.053 96.2563V101.868H428.418V95.7719C428.418 94.8568 428.256 94.1973 427.933 93.7936C427.61 93.3764 427.099 93.1678 426.399 93.1678C425.578 93.1678 424.932 93.4437 424.461 93.9955C423.99 94.5472 423.755 95.3009 423.755 96.2563V101.868H422.12V92.0374H423.735V93.5917C424.031 93.0131 424.441 92.569 424.966 92.2594C425.491 91.9499 426.096 91.7952 426.783 91.7952C428.303 91.7952 429.306 92.4411 429.79 93.7331C430.073 93.1275 430.504 92.6564 431.082 92.32C431.661 91.9701 432.32 91.7952 433.061 91.7952ZM443.71 91.7952C444.962 91.7952 445.89 92.1181 446.496 92.7641C447.115 93.3966 447.425 94.3656 447.425 95.6709V101.868H445.83V100.193C445.574 100.771 445.184 101.222 444.659 101.545C444.134 101.855 443.529 102.009 442.842 102.009C442.21 102.009 441.624 101.882 441.086 101.626C440.561 101.37 440.144 101.014 439.834 100.556C439.525 100.098 439.37 99.5938 439.37 99.0421C439.37 98.3019 439.559 97.73 439.935 97.3262C440.312 96.909 440.931 96.613 441.793 96.438C442.654 96.2496 443.852 96.1554 445.386 96.1554H445.83V95.4893C445.83 94.6684 445.662 94.0762 445.325 93.7129C444.989 93.3361 444.444 93.1476 443.69 93.1476C442.56 93.1476 441.436 93.4975 440.319 94.1973L439.774 93.0063C440.285 92.643 440.898 92.3536 441.611 92.1383C442.338 91.9095 443.037 91.7952 443.71 91.7952ZM443.064 100.718C443.872 100.718 444.531 100.448 445.043 99.9101C445.567 99.3583 445.83 98.6518 445.83 97.7905V97.2051H445.466C444.282 97.2051 443.381 97.2589 442.761 97.3666C442.142 97.4608 441.698 97.629 441.429 97.8713C441.173 98.1 441.046 98.4432 441.046 98.9008C441.046 99.4256 441.234 99.863 441.611 100.213C442.001 100.549 442.486 100.718 443.064 100.718ZM455.141 100.697C455.437 100.697 455.733 100.677 456.029 100.637L455.949 101.929C455.639 101.983 455.303 102.009 454.939 102.009C453.755 102.009 452.86 101.7 452.255 101.081C451.662 100.462 451.366 99.6006 451.366 98.497V93.3293H449.449V92.0374H451.366V89.0498H453.001V92.0374H455.787V93.3293H453.001V98.3759C453.001 99.9235 453.715 100.697 455.141 100.697ZM458.085 101.868V92.0374H459.72V101.868H458.085ZM457.924 87.7781H459.902V89.615H457.924V87.7781ZM467.258 102.009C466.33 102.009 465.509 101.801 464.796 101.384C464.096 100.967 463.551 100.374 463.161 99.6073C462.784 98.8267 462.595 97.9251 462.595 96.9023C462.595 95.8795 462.784 94.9846 463.161 94.2175C463.551 93.437 464.096 92.8381 464.796 92.4209C465.509 92.0038 466.33 91.7952 467.258 91.7952C468.187 91.7952 469.008 92.0038 469.721 92.4209C470.434 92.8381 470.979 93.437 471.356 94.2175C471.747 94.9846 471.942 95.8795 471.942 96.9023C471.942 97.9251 471.747 98.8267 471.356 99.6073C470.979 100.374 470.434 100.967 469.721 101.384C469.008 101.801 468.187 102.009 467.258 102.009ZM467.258 100.657C468.227 100.657 468.968 100.341 469.479 99.7082C470.004 99.0623 470.266 98.127 470.266 96.9023C470.266 95.7046 470.004 94.7827 469.479 94.1368C468.954 93.4774 468.214 93.1476 467.258 93.1476C466.303 93.1476 465.563 93.4774 465.038 94.1368C464.513 94.7827 464.251 95.7046 464.251 96.9023C464.251 98.1135 464.506 99.0421 465.018 99.688C465.543 100.334 466.289 100.657 467.258 100.657ZM479.727 91.7952C482.082 91.7952 483.26 93.0938 483.26 95.6911V101.868H481.625V95.7921C481.625 94.8769 481.443 94.2108 481.08 93.7936C480.73 93.3764 480.165 93.1678 479.384 93.1678C478.482 93.1678 477.763 93.4437 477.224 93.9955C476.686 94.5472 476.417 95.2941 476.417 96.2362V101.868H474.782V92.0374H476.397V93.6523C476.72 93.0467 477.17 92.5892 477.749 92.2796C478.328 91.9567 478.987 91.7952 479.727 91.7952ZM499.312 92.0576H500.947L495.133 105.502H493.458L495.113 101.747L490.954 92.0576H492.69L495.981 100.092L499.312 92.0576ZM506.999 102.009C506.07 102.009 505.249 101.801 504.536 101.384C503.836 100.967 503.291 100.374 502.901 99.6073C502.524 98.8267 502.336 97.9251 502.336 96.9023C502.336 95.8795 502.524 94.9846 502.901 94.2175C503.291 93.437 503.836 92.8381 504.536 92.4209C505.249 92.0038 506.07 91.7952 506.999 91.7952C507.927 91.7952 508.748 92.0038 509.462 92.4209C510.175 92.8381 510.72 93.437 511.097 94.2175C511.487 94.9846 511.682 95.8795 511.682 96.9023C511.682 97.9251 511.487 98.8267 511.097 99.6073C510.72 100.374 510.175 100.967 509.462 101.384C508.748 101.801 507.927 102.009 506.999 102.009ZM506.999 100.657C507.968 100.657 508.708 100.341 509.219 99.7082C509.744 99.0623 510.007 98.127 510.007 96.9023C510.007 95.7046 509.744 94.7827 509.219 94.1368C508.694 93.4774 507.954 93.1476 506.999 93.1476C506.043 93.1476 505.303 93.4774 504.778 94.1368C504.253 94.7827 503.991 95.7046 503.991 96.9023C503.991 98.1135 504.247 99.0421 504.758 99.688C505.283 100.334 506.03 100.657 506.999 100.657ZM522.798 92.0374V101.868H521.204V100.193C520.894 100.785 520.457 101.236 519.892 101.545C519.34 101.855 518.714 102.009 518.014 102.009C516.843 102.009 515.962 101.686 515.37 101.041C514.778 100.381 514.482 99.4122 514.482 98.1337V92.0374H516.117V98.0933C516.117 98.9681 516.292 99.614 516.642 100.031C516.991 100.435 517.543 100.637 518.297 100.637C519.158 100.637 519.851 100.361 520.376 99.8092C520.901 99.2439 521.163 98.5038 521.163 97.5887V92.0374H522.798ZM186.051 123.795C188.406 123.795 189.584 125.094 189.584 127.691V133.868H187.948V127.792C187.948 126.877 187.767 126.211 187.403 125.794C187.054 125.376 186.488 125.168 185.708 125.168C184.806 125.168 184.086 125.444 183.548 125.995C183.01 126.547 182.74 127.294 182.74 128.236V133.868H181.105V124.037H182.72V125.652C183.043 125.047 183.494 124.589 184.073 124.28C184.651 123.957 185.311 123.795 186.051 123.795ZM201.218 129.205H194.032C194.086 130.349 194.395 131.217 194.96 131.809C195.526 132.388 196.326 132.677 197.363 132.677C198.506 132.677 199.556 132.287 200.512 131.506L201.057 132.697C200.626 133.101 200.074 133.424 199.401 133.666C198.729 133.895 198.042 134.009 197.342 134.009C195.808 134.009 194.597 133.559 193.709 132.657C192.834 131.755 192.397 130.51 192.397 128.923C192.397 127.913 192.592 127.025 192.982 126.258C193.372 125.477 193.917 124.872 194.617 124.441C195.33 124.01 196.138 123.795 197.04 123.795C198.345 123.795 199.368 124.226 200.108 125.087C200.848 125.935 201.218 127.106 201.218 128.6V129.205ZM197.06 125.067C196.198 125.067 195.505 125.336 194.981 125.874C194.469 126.413 194.166 127.173 194.072 128.155H199.785C199.758 127.16 199.509 126.399 199.038 125.874C198.567 125.336 197.908 125.067 197.06 125.067ZM212.267 129.205H205.081C205.135 130.349 205.444 131.217 206.009 131.809C206.575 132.388 207.375 132.677 208.411 132.677C209.555 132.677 210.605 132.287 211.561 131.506L212.106 132.697C211.675 133.101 211.123 133.424 210.45 133.666C209.777 133.895 209.091 134.009 208.391 134.009C206.857 134.009 205.646 133.559 204.758 132.657C203.883 131.755 203.446 130.51 203.446 128.923C203.446 127.913 203.641 127.025 204.031 126.258C204.421 125.477 204.966 124.872 205.666 124.441C206.379 124.01 207.187 123.795 208.088 123.795C209.394 123.795 210.417 124.226 211.157 125.087C211.897 125.935 212.267 127.106 212.267 128.6V129.205ZM208.109 125.067C207.247 125.067 206.554 125.336 206.029 125.874C205.518 126.413 205.215 127.173 205.121 128.155H210.834C210.807 127.16 210.558 126.399 210.087 125.874C209.616 125.336 208.956 125.067 208.109 125.067ZM223.8 119.637V133.868H222.165V132.072C221.869 132.691 221.432 133.168 220.853 133.505C220.288 133.841 219.622 134.009 218.855 134.009C217.993 134.009 217.233 133.794 216.574 133.364C215.914 132.933 215.403 132.334 215.04 131.567C214.676 130.786 214.495 129.885 214.495 128.862C214.495 127.853 214.676 126.964 215.04 126.197C215.403 125.43 215.914 124.838 216.574 124.421C217.233 124.004 217.993 123.795 218.855 123.795C219.622 123.795 220.288 123.963 220.853 124.3C221.432 124.636 221.869 125.114 222.165 125.733V119.637H223.8ZM219.178 132.657C220.133 132.657 220.867 132.334 221.378 131.688C221.903 131.029 222.165 130.1 222.165 128.902C222.165 127.705 221.903 126.783 221.378 126.137C220.867 125.491 220.133 125.168 219.178 125.168C218.222 125.168 217.475 125.491 216.937 126.137C216.412 126.783 216.15 127.691 216.15 128.862C216.15 130.06 216.412 130.995 216.937 131.668C217.475 132.327 218.222 132.657 219.178 132.657ZM232.841 133.868V124.037H234.476V133.868H232.841ZM232.679 119.778H234.658V121.615H232.679V119.778ZM241.267 134.009C239.612 134.009 238.3 133.586 237.331 132.738L237.876 131.527C238.401 131.944 238.932 132.247 239.47 132.435C240.022 132.61 240.641 132.697 241.328 132.697C242.054 132.697 242.606 132.576 242.983 132.334C243.373 132.078 243.568 131.715 243.568 131.244C243.568 130.854 243.44 130.544 243.185 130.315C242.929 130.087 242.505 129.905 241.913 129.77L240.258 129.387C239.423 129.198 238.784 128.875 238.34 128.418C237.896 127.96 237.674 127.395 237.674 126.722C237.674 125.847 238.017 125.141 238.703 124.603C239.39 124.064 240.305 123.795 241.449 123.795C242.135 123.795 242.788 123.91 243.407 124.138C244.026 124.354 244.544 124.67 244.961 125.087L244.416 126.278C243.514 125.511 242.525 125.127 241.449 125.127C240.762 125.127 240.224 125.262 239.834 125.531C239.457 125.787 239.269 126.15 239.269 126.621C239.269 127.012 239.383 127.328 239.612 127.57C239.854 127.799 240.238 127.974 240.762 128.095L242.438 128.499C243.353 128.714 244.033 129.044 244.477 129.488C244.921 129.918 245.143 130.484 245.143 131.183C245.143 132.045 244.793 132.731 244.093 133.242C243.407 133.754 242.465 134.009 241.267 134.009ZM256.978 134.009C255.322 134.009 254.01 133.586 253.041 132.738L253.586 131.527C254.111 131.944 254.643 132.247 255.181 132.435C255.733 132.61 256.352 132.697 257.038 132.697C257.765 132.697 258.317 132.576 258.694 132.334C259.084 132.078 259.279 131.715 259.279 131.244C259.279 130.854 259.151 130.544 258.895 130.315C258.64 130.087 258.216 129.905 257.624 129.77L255.968 129.387C255.134 129.198 254.495 128.875 254.051 128.418C253.607 127.96 253.385 127.395 253.385 126.722C253.385 125.847 253.728 125.141 254.414 124.603C255.1 124.064 256.015 123.795 257.159 123.795C257.846 123.795 258.498 123.91 259.117 124.138C259.736 124.354 260.255 124.67 260.672 125.087L260.127 126.278C259.225 125.511 258.236 125.127 257.159 125.127C256.473 125.127 255.935 125.262 255.544 125.531C255.168 125.787 254.979 126.15 254.979 126.621C254.979 127.012 255.094 127.328 255.322 127.57C255.565 127.799 255.948 127.974 256.473 128.095L258.148 128.499C259.064 128.714 259.743 129.044 260.187 129.488C260.631 129.918 260.853 130.484 260.853 131.183C260.853 132.045 260.504 132.731 259.804 133.242C259.117 133.754 258.175 134.009 256.978 134.009ZM271.986 129.205H264.799C264.853 130.349 265.163 131.217 265.728 131.809C266.293 132.388 267.094 132.677 268.13 132.677C269.274 132.677 270.324 132.287 271.279 131.506L271.824 132.697C271.393 133.101 270.842 133.424 270.169 133.666C269.496 133.895 268.81 134.009 268.11 134.009C266.576 134.009 265.364 133.559 264.476 132.657C263.602 131.755 263.164 130.51 263.164 128.923C263.164 127.913 263.359 127.025 263.75 126.258C264.14 125.477 264.685 124.872 265.385 124.441C266.098 124.01 266.905 123.795 267.807 123.795C269.112 123.795 270.135 124.226 270.875 125.087C271.616 125.935 271.986 127.106 271.986 128.6V129.205ZM267.827 125.067C266.966 125.067 266.273 125.336 265.748 125.874C265.237 126.413 264.934 127.173 264.84 128.155H270.552C270.525 127.16 270.277 126.399 269.806 125.874C269.334 125.336 268.675 125.067 267.827 125.067ZM280.37 125.208L279.3 125.309C278.291 125.403 277.557 125.72 277.1 126.258C276.656 126.796 276.434 127.462 276.434 128.256V133.868H274.798V124.037H276.393V125.753C276.945 124.609 278.028 123.97 279.643 123.836L280.229 123.795L280.37 125.208ZM289.975 124.058H291.61L287.371 133.868H285.837L281.618 124.058H283.354L286.644 132.092L289.975 124.058ZM301.82 129.205H294.634C294.688 130.349 294.997 131.217 295.563 131.809C296.128 132.388 296.929 132.677 297.965 132.677C299.109 132.677 300.158 132.287 301.114 131.506L301.659 132.697C301.228 133.101 300.677 133.424 300.004 133.666C299.331 133.895 298.644 134.009 297.945 134.009C296.411 134.009 295.199 133.559 294.311 132.657C293.436 131.755 292.999 130.51 292.999 128.923C292.999 127.913 293.194 127.025 293.584 126.258C293.975 125.477 294.52 124.872 295.22 124.441C295.933 124.01 296.74 123.795 297.642 123.795C298.947 123.795 299.97 124.226 300.71 125.087C301.45 125.935 301.82 127.106 301.82 128.6V129.205ZM297.662 125.067C296.801 125.067 296.108 125.336 295.583 125.874C295.071 126.413 294.769 127.173 294.674 128.155H300.387C300.36 127.16 300.111 126.399 299.64 125.874C299.169 125.336 298.51 125.067 297.662 125.067ZM313.354 119.637V133.868H311.719V132.072C311.423 132.691 310.985 133.168 310.407 133.505C309.841 133.841 309.175 134.009 308.408 134.009C307.547 134.009 306.787 133.794 306.127 133.364C305.468 132.933 304.956 132.334 304.593 131.567C304.23 130.786 304.048 129.885 304.048 128.862C304.048 127.853 304.23 126.964 304.593 126.197C304.956 125.43 305.468 124.838 306.127 124.421C306.787 124.004 307.547 123.795 308.408 123.795C309.175 123.795 309.841 123.963 310.407 124.3C310.985 124.636 311.423 125.114 311.719 125.733V119.637H313.354ZM308.731 132.657C309.687 132.657 310.42 132.334 310.931 131.688C311.456 131.029 311.719 130.1 311.719 128.902C311.719 127.705 311.456 126.783 310.931 126.137C310.42 125.491 309.687 125.168 308.731 125.168C307.776 125.168 307.029 125.491 306.49 126.137C305.966 126.783 305.703 127.691 305.703 128.862C305.703 130.06 305.966 130.995 306.49 131.668C307.029 132.327 307.776 132.657 308.731 132.657ZM322.394 133.868V124.037H324.029V133.868H322.394ZM322.233 119.778H324.211V121.615H322.233V119.778ZM338.431 123.795C340.611 123.795 341.701 125.094 341.701 127.691V133.868H340.066V127.772C340.066 126.87 339.904 126.211 339.581 125.794C339.272 125.376 338.767 125.168 338.067 125.168C337.246 125.168 336.6 125.444 336.129 125.995C335.658 126.547 335.423 127.301 335.423 128.256V133.868H333.788V127.772C333.788 126.857 333.626 126.197 333.303 125.794C332.98 125.376 332.469 125.168 331.769 125.168C330.948 125.168 330.302 125.444 329.831 125.995C329.36 126.547 329.125 127.301 329.125 128.256V133.868H327.49V124.037H329.105V125.592C329.401 125.013 329.811 124.569 330.336 124.259C330.861 123.95 331.466 123.795 332.153 123.795C333.673 123.795 334.676 124.441 335.16 125.733C335.443 125.127 335.874 124.656 336.452 124.32C337.031 123.97 337.691 123.795 338.431 123.795ZM356.024 123.795C358.205 123.795 359.295 125.094 359.295 127.691V133.868H357.659V127.772C357.659 126.87 357.498 126.211 357.175 125.794C356.865 125.376 356.361 125.168 355.661 125.168C354.84 125.168 354.194 125.444 353.723 125.995C353.252 126.547 353.017 127.301 353.017 128.256V133.868H351.382V127.772C351.382 126.857 351.22 126.197 350.897 125.794C350.574 125.376 350.063 125.168 349.363 125.168C348.542 125.168 347.896 125.444 347.425 125.995C346.954 126.547 346.718 127.301 346.718 128.256V133.868H345.083V124.037H346.698V125.592C346.994 125.013 347.405 124.569 347.93 124.259C348.454 123.95 349.06 123.795 349.746 123.795C351.267 123.795 352.27 124.441 352.754 125.733C353.037 125.127 353.467 124.656 354.046 124.32C354.625 123.97 355.284 123.795 356.024 123.795ZM370.913 129.205H363.727C363.781 130.349 364.09 131.217 364.655 131.809C365.221 132.388 366.021 132.677 367.057 132.677C368.201 132.677 369.251 132.287 370.207 131.506L370.752 132.697C370.321 133.101 369.769 133.424 369.096 133.666C368.423 133.895 367.737 134.009 367.037 134.009C365.503 134.009 364.292 133.559 363.404 132.657C362.529 131.755 362.092 130.51 362.092 128.923C362.092 127.913 362.287 127.025 362.677 126.258C363.067 125.477 363.612 124.872 364.312 124.441C365.025 124.01 365.833 123.795 366.735 123.795C368.04 123.795 369.063 124.226 369.803 125.087C370.543 125.935 370.913 127.106 370.913 128.6V129.205ZM366.755 125.067C365.893 125.067 365.2 125.336 364.676 125.874C364.164 126.413 363.861 127.173 363.767 128.155H369.48C369.453 127.16 369.204 126.399 368.733 125.874C368.262 125.336 367.603 125.067 366.755 125.067ZM382.446 119.637V133.868H380.811V132.072C380.515 132.691 380.078 133.168 379.499 133.505C378.934 133.841 378.268 134.009 377.501 134.009C376.64 134.009 375.879 133.794 375.22 133.364C374.56 132.933 374.049 132.334 373.686 131.567C373.322 130.786 373.141 129.885 373.141 128.862C373.141 127.853 373.322 126.964 373.686 126.197C374.049 125.43 374.56 124.838 375.22 124.421C375.879 124.004 376.64 123.795 377.501 123.795C378.268 123.795 378.934 123.963 379.499 124.3C380.078 124.636 380.515 125.114 380.811 125.733V119.637H382.446ZM377.824 132.657C378.779 132.657 379.513 132.334 380.024 131.688C380.549 131.029 380.811 130.1 380.811 128.902C380.811 127.705 380.549 126.783 380.024 126.137C379.513 125.491 378.779 125.168 377.824 125.168C376.868 125.168 376.121 125.491 375.583 126.137C375.058 126.783 374.796 127.691 374.796 128.862C374.796 130.06 375.058 130.995 375.583 131.668C376.121 132.327 376.868 132.657 377.824 132.657ZM385.879 133.868V124.037H387.514V133.868H385.879ZM385.717 119.778H387.696V121.615H385.717V119.778ZM394.971 123.795C396.223 123.795 397.151 124.118 397.757 124.764C398.376 125.397 398.685 126.366 398.685 127.671V133.868H397.091V132.193C396.835 132.771 396.445 133.222 395.92 133.545C395.395 133.855 394.789 134.009 394.103 134.009C393.471 134.009 392.885 133.882 392.347 133.626C391.822 133.37 391.405 133.014 391.095 132.556C390.786 132.098 390.631 131.594 390.631 131.042C390.631 130.302 390.819 129.73 391.196 129.326C391.573 128.909 392.192 128.613 393.053 128.438C393.915 128.25 395.112 128.155 396.647 128.155H397.091V127.489C397.091 126.668 396.923 126.076 396.586 125.713C396.25 125.336 395.705 125.148 394.951 125.148C393.821 125.148 392.697 125.498 391.58 126.197L391.035 125.006C391.546 124.643 392.159 124.354 392.872 124.138C393.598 123.91 394.298 123.795 394.971 123.795ZM394.325 132.718C395.133 132.718 395.792 132.448 396.303 131.91C396.828 131.358 397.091 130.652 397.091 129.791V129.205H396.727C395.543 129.205 394.641 129.259 394.022 129.367C393.403 129.461 392.959 129.629 392.69 129.871C392.434 130.1 392.307 130.443 392.307 130.901C392.307 131.426 392.495 131.863 392.872 132.213C393.262 132.549 393.747 132.718 394.325 132.718ZM406.402 132.697C406.698 132.697 406.994 132.677 407.29 132.637L407.21 133.929C406.9 133.983 406.564 134.009 406.2 134.009C405.016 134.009 404.121 133.7 403.516 133.081C402.923 132.462 402.627 131.601 402.627 130.497V125.329H400.71V124.037H402.627V121.05H404.262V124.037H407.048V125.329H404.262V130.376C404.262 131.924 404.976 132.697 406.402 132.697ZM417.582 129.205H410.396C410.45 130.349 410.759 131.217 411.324 131.809C411.89 132.388 412.69 132.677 413.727 132.677C414.871 132.677 415.92 132.287 416.876 131.506L417.421 132.697C416.99 133.101 416.438 133.424 415.765 133.666C415.093 133.895 414.406 134.009 413.706 134.009C412.172 134.009 410.961 133.559 410.073 132.657C409.198 131.755 408.761 130.51 408.761 128.923C408.761 127.913 408.956 127.025 409.346 126.258C409.736 125.477 410.282 124.872 410.981 124.441C411.695 124.01 412.502 123.795 413.404 123.795C414.709 123.795 415.732 124.226 416.472 125.087C417.212 125.935 417.582 127.106 417.582 128.6V129.205ZM413.424 125.067C412.563 125.067 411.87 125.336 411.345 125.874C410.833 126.413 410.53 127.173 410.436 128.155H416.149C416.122 127.16 415.873 126.399 415.402 125.874C414.931 125.336 414.272 125.067 413.424 125.067ZM420.395 133.868V119.637H422.03V133.868H420.395ZM432.536 124.058H434.171L428.357 137.502H426.682L428.337 133.747L424.178 124.058H425.915L429.205 132.092L432.536 124.058ZM446.817 123.795C447.678 123.795 448.439 124.004 449.098 124.421C449.758 124.838 450.269 125.43 450.632 126.197C450.996 126.964 451.177 127.853 451.177 128.862C451.177 129.885 450.996 130.786 450.632 131.567C450.269 132.334 449.758 132.933 449.098 133.364C448.439 133.794 447.678 134.009 446.817 134.009C446.05 134.009 445.377 133.841 444.799 133.505C444.233 133.168 443.803 132.691 443.507 132.072V133.868H441.872V119.637H443.507V125.733C443.803 125.114 444.233 124.636 444.799 124.3C445.377 123.963 446.05 123.795 446.817 123.795ZM446.494 132.657C447.45 132.657 448.19 132.327 448.715 131.668C449.24 130.995 449.502 130.06 449.502 128.862C449.502 127.691 449.24 126.783 448.715 126.137C448.19 125.491 447.45 125.168 446.494 125.168C445.539 125.168 444.799 125.491 444.274 126.137C443.762 126.783 443.507 127.705 443.507 128.902C443.507 130.1 443.762 131.029 444.274 131.688C444.799 132.334 445.539 132.657 446.494 132.657ZM460.951 124.058H462.586L456.773 137.502H455.097L456.752 133.747L452.594 124.058H454.33L457.62 132.092L460.951 124.058ZM184.436 166.009C182.781 166.009 181.469 165.586 180.5 164.738L181.045 163.527C181.57 163.944 182.101 164.247 182.639 164.435C183.191 164.61 183.81 164.697 184.497 164.697C185.223 164.697 185.775 164.576 186.152 164.334C186.542 164.078 186.737 163.715 186.737 163.244C186.737 162.854 186.609 162.544 186.354 162.315C186.098 162.087 185.674 161.905 185.082 161.77L183.427 161.387C182.592 161.198 181.953 160.875 181.509 160.418C181.065 159.96 180.843 159.395 180.843 158.722C180.843 157.847 181.186 157.141 181.872 156.603C182.559 156.064 183.474 155.795 184.618 155.795C185.304 155.795 185.957 155.91 186.576 156.138C187.195 156.354 187.713 156.67 188.13 157.087L187.585 158.278C186.683 157.511 185.694 157.127 184.618 157.127C183.931 157.127 183.393 157.262 183.003 157.531C182.626 157.787 182.438 158.15 182.438 158.621C182.438 159.012 182.552 159.328 182.781 159.57C183.023 159.799 183.407 159.974 183.931 160.095L185.607 160.499C186.522 160.714 187.202 161.044 187.646 161.488C188.09 161.918 188.312 162.484 188.312 163.183C188.312 164.045 187.962 164.731 187.262 165.242C186.576 165.754 185.634 166.009 184.436 166.009ZM191.208 165.868V156.037H192.843V165.868H191.208ZM191.046 151.778H193.025V153.615H191.046V151.778ZM207.244 155.795C209.425 155.795 210.515 157.094 210.515 159.691V165.868H208.88V159.772C208.88 158.87 208.718 158.211 208.395 157.794C208.086 157.376 207.581 157.168 206.881 157.168C206.06 157.168 205.414 157.444 204.943 157.995C204.472 158.547 204.237 159.301 204.237 160.256V165.868H202.602V159.772C202.602 158.857 202.44 158.197 202.117 157.794C201.794 157.376 201.283 157.168 200.583 157.168C199.762 157.168 199.116 157.444 198.645 157.995C198.174 158.547 197.939 159.301 197.939 160.256V165.868H196.303V156.037H197.918V157.592C198.214 157.013 198.625 156.569 199.15 156.259C199.675 155.95 200.28 155.795 200.966 155.795C202.487 155.795 203.49 156.441 203.974 157.733C204.257 157.127 204.688 156.656 205.266 156.32C205.845 155.97 206.504 155.795 207.244 155.795ZM218.843 155.795C219.704 155.795 220.464 156.01 221.124 156.441C221.783 156.872 222.295 157.477 222.658 158.258C223.021 159.025 223.203 159.92 223.203 160.943C223.203 161.965 223.021 162.86 222.658 163.627C222.295 164.381 221.783 164.967 221.124 165.384C220.478 165.801 219.718 166.009 218.843 166.009C218.076 166.009 217.403 165.841 216.824 165.505C216.259 165.168 215.828 164.691 215.532 164.072V169.502H213.897V156.037H215.532V157.733C215.828 157.114 216.259 156.636 216.824 156.3C217.403 155.963 218.076 155.795 218.843 155.795ZM218.52 164.657C219.475 164.657 220.215 164.334 220.74 163.688C221.265 163.042 221.528 162.127 221.528 160.943C221.528 159.758 221.265 158.837 220.74 158.177C220.215 157.504 219.475 157.168 218.52 157.168C217.564 157.168 216.824 157.491 216.299 158.137C215.788 158.783 215.532 159.705 215.532 160.902C215.532 162.1 215.788 163.029 216.299 163.688C216.824 164.334 217.564 164.657 218.52 164.657ZM226.05 165.868V151.637H227.685V165.868H226.05ZM238.19 156.058H239.826L234.012 169.502H232.336L233.992 165.747L229.833 156.058H231.569L234.86 164.092L238.19 156.058ZM251.685 166.009C250.716 166.009 249.875 165.801 249.161 165.384C248.448 164.967 247.896 164.381 247.506 163.627C247.129 162.86 246.941 161.965 246.941 160.943C246.941 159.92 247.136 159.025 247.526 158.258C247.93 157.477 248.489 156.872 249.202 156.441C249.929 156.01 250.776 155.795 251.745 155.795C252.405 155.795 253.051 155.916 253.683 156.159C254.316 156.387 254.827 156.697 255.217 157.087L254.672 158.298C253.744 157.545 252.802 157.168 251.846 157.168C250.837 157.168 250.05 157.498 249.484 158.157C248.919 158.816 248.637 159.745 248.637 160.943C248.637 162.127 248.919 163.042 249.484 163.688C250.05 164.334 250.837 164.657 251.846 164.657C252.802 164.657 253.744 164.28 254.672 163.527L255.217 164.738C254.8 165.128 254.275 165.438 253.643 165.666C253.01 165.895 252.358 166.009 251.685 166.009ZM261.667 166.009C260.739 166.009 259.918 165.801 259.205 165.384C258.505 164.967 257.96 164.374 257.569 163.607C257.193 162.827 257.004 161.925 257.004 160.902C257.004 159.88 257.193 158.985 257.569 158.218C257.96 157.437 258.505 156.838 259.205 156.421C259.918 156.004 260.739 155.795 261.667 155.795C262.596 155.795 263.417 156.004 264.13 156.421C264.843 156.838 265.388 157.437 265.765 158.218C266.155 158.985 266.35 159.88 266.35 160.902C266.35 161.925 266.155 162.827 265.765 163.607C265.388 164.374 264.843 164.967 264.13 165.384C263.417 165.801 262.596 166.009 261.667 166.009ZM261.667 164.657C262.636 164.657 263.376 164.341 263.888 163.708C264.413 163.062 264.675 162.127 264.675 160.902C264.675 159.705 264.413 158.783 263.888 158.137C263.363 157.477 262.623 157.148 261.667 157.148C260.712 157.148 259.972 157.477 259.447 158.137C258.922 158.783 258.659 159.705 258.659 160.902C258.659 162.113 258.915 163.042 259.427 163.688C259.951 164.334 260.698 164.657 261.667 164.657ZM274.136 155.795C276.491 155.795 277.669 157.094 277.669 159.691V165.868H276.034V159.792C276.034 158.877 275.852 158.211 275.489 157.794C275.139 157.376 274.573 157.168 273.793 157.168C272.891 157.168 272.171 157.444 271.633 157.995C271.095 158.547 270.826 159.294 270.826 160.236V165.868H269.19V156.037H270.805V157.652C271.128 157.047 271.579 156.589 272.158 156.28C272.737 155.957 273.396 155.795 274.136 155.795ZM285.387 164.697C285.683 164.697 285.979 164.677 286.275 164.637L286.195 165.929C285.885 165.983 285.549 166.009 285.185 166.009C284.001 166.009 283.106 165.7 282.501 165.081C281.908 164.462 281.612 163.601 281.612 162.497V157.329H279.695V156.037H281.612V153.05H283.247V156.037H286.033V157.329H283.247V162.376C283.247 163.924 283.961 164.697 285.387 164.697ZM292.328 155.795C293.58 155.795 294.508 156.118 295.114 156.764C295.733 157.397 296.042 158.366 296.042 159.671V165.868H294.448V164.193C294.192 164.771 293.802 165.222 293.277 165.545C292.752 165.855 292.146 166.009 291.46 166.009C290.828 166.009 290.242 165.882 289.704 165.626C289.179 165.37 288.762 165.014 288.452 164.556C288.143 164.098 287.988 163.594 287.988 163.042C287.988 162.302 288.176 161.73 288.553 161.326C288.93 160.909 289.549 160.613 290.41 160.438C291.272 160.25 292.469 160.155 294.004 160.155H294.448V159.489C294.448 158.668 294.279 158.076 293.943 157.713C293.607 157.336 293.062 157.148 292.308 157.148C291.178 157.148 290.054 157.498 288.937 158.197L288.392 157.006C288.903 156.643 289.516 156.354 290.229 156.138C290.955 155.91 291.655 155.795 292.328 155.795ZM291.682 164.718C292.49 164.718 293.149 164.448 293.66 163.91C294.185 163.358 294.448 162.652 294.448 161.791V161.205H294.084C292.9 161.205 291.998 161.259 291.379 161.367C290.76 161.461 290.316 161.629 290.047 161.871C289.791 162.1 289.664 162.443 289.664 162.901C289.664 163.426 289.852 163.863 290.229 164.213C290.619 164.549 291.104 164.718 291.682 164.718ZM303.598 166.009C302.629 166.009 301.788 165.801 301.074 165.384C300.361 164.967 299.809 164.381 299.419 163.627C299.042 162.86 298.854 161.965 298.854 160.943C298.854 159.92 299.049 159.025 299.439 158.258C299.843 157.477 300.401 156.872 301.115 156.441C301.841 156.01 302.689 155.795 303.658 155.795C304.318 155.795 304.964 155.916 305.596 156.159C306.229 156.387 306.74 156.697 307.13 157.087L306.585 158.298C305.657 157.545 304.715 157.168 303.759 157.168C302.75 157.168 301.963 157.498 301.397 158.157C300.832 158.816 300.55 159.745 300.55 160.943C300.55 162.127 300.832 163.042 301.397 163.688C301.963 164.334 302.75 164.657 303.759 164.657C304.715 164.657 305.657 164.28 306.585 163.527L307.13 164.738C306.713 165.128 306.188 165.438 305.556 165.666C304.923 165.895 304.271 166.009 303.598 166.009ZM313.842 164.697C314.138 164.697 314.434 164.677 314.73 164.637L314.65 165.929C314.34 165.983 314.004 166.009 313.64 166.009C312.456 166.009 311.561 165.7 310.955 165.081C310.363 164.462 310.067 163.601 310.067 162.497V157.329H308.15V156.037H310.067V153.05H311.702V156.037H314.488V157.329H311.702V162.376C311.702 163.924 312.416 164.697 313.842 164.697ZM316.786 165.868V156.037H318.421V165.868H316.786ZM316.625 151.778H318.603V153.615H316.625V151.778ZM326.827 155.795C329.182 155.795 330.36 157.094 330.36 159.691V165.868H328.725V159.792C328.725 158.877 328.543 158.211 328.18 157.794C327.83 157.376 327.265 157.168 326.484 157.168C325.582 157.168 324.862 157.444 324.324 157.995C323.786 158.547 323.517 159.294 323.517 160.236V165.868H321.882V156.037H323.497V157.652C323.82 157.047 324.27 156.589 324.849 156.28C325.428 155.957 326.087 155.795 326.827 155.795ZM342.56 156.037V165.202C342.56 166.669 342.183 167.772 341.429 168.513C340.676 169.266 339.559 169.643 338.078 169.643C336.356 169.643 334.909 169.199 333.738 168.311L334.283 167.1C334.943 167.53 335.562 167.84 336.14 168.028C336.719 168.217 337.365 168.311 338.078 168.311C339.02 168.311 339.734 168.055 340.218 167.544C340.703 167.046 340.945 166.312 340.945 165.343V163.607C340.662 164.24 340.225 164.724 339.633 165.061C339.054 165.397 338.368 165.565 337.574 165.565C336.712 165.565 335.945 165.364 335.272 164.96C334.613 164.556 334.095 163.984 333.718 163.244C333.355 162.504 333.173 161.649 333.173 160.68C333.173 159.711 333.355 158.857 333.718 158.117C334.095 157.376 334.613 156.804 335.272 156.401C335.945 155.997 336.712 155.795 337.574 155.795C338.354 155.795 339.034 155.963 339.613 156.3C340.191 156.636 340.629 157.114 340.925 157.733V156.037H342.56ZM337.897 164.213C338.839 164.213 339.579 163.903 340.117 163.284C340.655 162.652 340.925 161.784 340.925 160.68C340.925 159.59 340.655 158.736 340.117 158.117C339.592 157.484 338.852 157.168 337.897 157.168C336.941 157.168 336.188 157.484 335.636 158.117C335.098 158.736 334.828 159.59 334.828 160.68C334.828 161.784 335.098 162.652 335.636 163.284C336.188 163.903 336.941 164.213 337.897 164.213ZM355.676 166.009C354.747 166.009 353.926 165.801 353.213 165.384C352.513 164.967 351.968 164.374 351.578 163.607C351.201 162.827 351.013 161.925 351.013 160.902C351.013 159.88 351.201 158.985 351.578 158.218C351.968 157.437 352.513 156.838 353.213 156.421C353.926 156.004 354.747 155.795 355.676 155.795C356.604 155.795 357.425 156.004 358.139 156.421C358.852 156.838 359.397 157.437 359.774 158.218C360.164 158.985 360.359 159.88 360.359 160.902C360.359 161.925 360.164 162.827 359.774 163.607C359.397 164.374 358.852 164.967 358.139 165.384C357.425 165.801 356.604 166.009 355.676 166.009ZM355.676 164.657C356.645 164.657 357.385 164.341 357.896 163.708C358.421 163.062 358.684 162.127 358.684 160.902C358.684 159.705 358.421 158.783 357.896 158.137C357.371 157.477 356.631 157.148 355.676 157.148C354.72 157.148 353.98 157.477 353.455 158.137C352.93 158.783 352.668 159.705 352.668 160.902C352.668 162.113 352.924 163.042 353.435 163.688C353.96 164.334 354.707 164.657 355.676 164.657ZM371.475 156.037V165.868H369.881V164.193C369.571 164.785 369.134 165.236 368.569 165.545C368.017 165.855 367.391 166.009 366.691 166.009C365.52 166.009 364.639 165.686 364.047 165.041C363.455 164.381 363.159 163.412 363.159 162.134V156.037H364.794V162.093C364.794 162.968 364.969 163.614 365.319 164.031C365.669 164.435 366.22 164.637 366.974 164.637C367.835 164.637 368.528 164.361 369.053 163.809C369.578 163.244 369.84 162.504 369.84 161.589V156.037H371.475ZM380.49 157.208L379.42 157.309C378.41 157.403 377.677 157.72 377.219 158.258C376.775 158.796 376.553 159.462 376.553 160.256V165.868H374.918V156.037H376.513V157.753C377.065 156.609 378.148 155.97 379.763 155.836L380.348 155.795L380.49 157.208ZM392.366 164.697C392.662 164.697 392.958 164.677 393.255 164.637L393.174 165.929C392.864 165.983 392.528 166.009 392.164 166.009C390.98 166.009 390.085 165.7 389.48 165.081C388.888 164.462 388.591 163.601 388.591 162.497V157.329H386.674V156.037H388.591V153.05H390.227V156.037H393.012V157.329H390.227V162.376C390.227 163.924 390.94 164.697 392.366 164.697ZM403.546 161.205H396.36C396.414 162.349 396.723 163.217 397.289 163.809C397.854 164.388 398.655 164.677 399.691 164.677C400.835 164.677 401.884 164.287 402.84 163.506L403.385 164.697C402.954 165.101 402.403 165.424 401.73 165.666C401.057 165.895 400.37 166.009 399.671 166.009C398.136 166.009 396.925 165.559 396.037 164.657C395.162 163.755 394.725 162.51 394.725 160.923C394.725 159.913 394.92 159.025 395.31 158.258C395.701 157.477 396.246 156.872 396.945 156.441C397.659 156.01 398.466 155.795 399.368 155.795C400.673 155.795 401.696 156.226 402.436 157.087C403.176 157.935 403.546 159.106 403.546 160.6V161.205ZM399.388 157.067C398.527 157.067 397.834 157.336 397.309 157.874C396.797 158.413 396.495 159.173 396.4 160.155H402.113C402.086 159.16 401.837 158.399 401.366 157.874C400.895 157.336 400.236 157.067 399.388 157.067ZM410.356 155.795C411.608 155.795 412.536 156.118 413.142 156.764C413.761 157.397 414.07 158.366 414.07 159.671V165.868H412.476V164.193C412.22 164.771 411.83 165.222 411.305 165.545C410.78 165.855 410.174 166.009 409.488 166.009C408.856 166.009 408.27 165.882 407.732 165.626C407.207 165.37 406.79 165.014 406.48 164.556C406.171 164.098 406.016 163.594 406.016 163.042C406.016 162.302 406.205 161.73 406.581 161.326C406.958 160.909 407.577 160.613 408.438 160.438C409.3 160.25 410.497 160.155 412.032 160.155H412.476V159.489C412.476 158.668 412.308 158.076 411.971 157.713C411.635 157.336 411.09 157.148 410.336 157.148C409.206 157.148 408.082 157.498 406.965 158.197L406.42 157.006C406.931 156.643 407.544 156.354 408.257 156.138C408.983 155.91 409.683 155.795 410.356 155.795ZM409.71 164.718C410.518 164.718 411.177 164.448 411.688 163.91C412.213 163.358 412.476 162.652 412.476 161.791V161.205H412.112C410.928 161.205 410.026 161.259 409.407 161.367C408.788 161.461 408.344 161.629 408.075 161.871C407.819 162.1 407.692 162.443 407.692 162.901C407.692 163.426 407.88 163.863 408.257 164.213C408.647 164.549 409.132 164.718 409.71 164.718ZM428.408 155.795C430.588 155.795 431.679 157.094 431.679 159.691V165.868H430.043V159.772C430.043 158.87 429.882 158.211 429.559 157.794C429.249 157.376 428.745 157.168 428.045 157.168C427.224 157.168 426.578 157.444 426.107 157.995C425.636 158.547 425.401 159.301 425.401 160.256V165.868H423.765V159.772C423.765 158.857 423.604 158.197 423.281 157.794C422.958 157.376 422.447 157.168 421.747 157.168C420.926 157.168 420.28 157.444 419.809 157.995C419.338 158.547 419.102 159.301 419.102 160.256V165.868H417.467V156.037H419.082V157.592C419.378 157.013 419.789 156.569 420.314 156.259C420.838 155.95 421.444 155.795 422.13 155.795C423.651 155.795 424.654 156.441 425.138 157.733C425.421 157.127 425.851 156.656 426.43 156.32C427.009 155.97 427.668 155.795 428.408 155.795ZM436.503 151.637V153.09C436.503 153.655 436.409 154.174 436.221 154.645C436.046 155.116 435.736 155.573 435.292 156.017L434.525 155.412C435.05 154.833 435.346 154.261 435.413 153.696H434.444V151.637H436.503ZM439.854 151.637V153.09C439.854 153.655 439.76 154.174 439.572 154.645C439.397 155.116 439.087 155.573 438.643 156.017L437.876 155.412C438.401 154.833 438.697 154.261 438.764 153.696H437.795V151.637H439.854Z" fill="#3C405F"/>
<path d="M181.247 212.961H187.141C188.648 212.961 189.819 213.331 190.653 214.071C191.488 214.811 191.905 215.861 191.905 217.22C191.905 218.566 191.488 219.616 190.653 220.369C189.819 221.123 188.648 221.5 187.141 221.5H183.326V227.192H181.247V212.961ZM186.919 219.824C188.911 219.824 189.907 218.956 189.907 217.22C189.907 215.498 188.911 214.636 186.919 214.636H183.326V219.824H186.919ZM202.679 222.61H195.715C195.863 224.696 196.899 225.739 198.824 225.739C199.954 225.739 200.977 225.369 201.892 224.629L202.518 226.062C202.06 226.452 201.495 226.762 200.822 226.991C200.149 227.219 199.463 227.334 198.763 227.334C197.189 227.334 195.944 226.883 195.029 225.981C194.127 225.08 193.676 223.835 193.676 222.247C193.676 221.237 193.871 220.342 194.262 219.562C194.665 218.781 195.224 218.176 195.937 217.745C196.664 217.315 197.485 217.099 198.4 217.099C199.732 217.099 200.775 217.53 201.529 218.391C202.296 219.252 202.679 220.443 202.679 221.964V222.61ZM198.44 218.593C197.66 218.593 197.034 218.842 196.563 219.34C196.105 219.824 195.829 220.524 195.735 221.439H200.923C200.883 220.524 200.647 219.824 200.217 219.34C199.799 218.842 199.207 218.593 198.44 218.593ZM209.894 225.759C210.204 225.759 210.507 225.739 210.803 225.699L210.702 227.253C210.365 227.307 210.015 227.334 209.652 227.334C208.374 227.334 207.418 227.024 206.786 226.405C206.166 225.773 205.857 224.864 205.857 223.68V218.916H203.939V217.341H205.857V214.374H207.896V217.341H210.601V218.916H207.896V223.599C207.896 225.039 208.562 225.759 209.894 225.759ZM221.189 222.61H214.225C214.373 224.696 215.409 225.739 217.334 225.739C218.464 225.739 219.487 225.369 220.402 224.629L221.028 226.062C220.57 226.452 220.005 226.762 219.332 226.991C218.659 227.219 217.973 227.334 217.273 227.334C215.699 227.334 214.454 226.883 213.539 225.981C212.637 225.08 212.186 223.835 212.186 222.247C212.186 221.237 212.381 220.342 212.772 219.562C213.175 218.781 213.734 218.176 214.447 217.745C215.174 217.315 215.995 217.099 216.91 217.099C218.242 217.099 219.285 217.53 220.039 218.391C220.806 219.252 221.189 220.443 221.189 221.964V222.61ZM216.95 218.593C216.17 218.593 215.544 218.842 215.073 219.34C214.615 219.824 214.339 220.524 214.245 221.439H219.433C219.393 220.524 219.157 219.824 218.727 219.34C218.309 218.842 217.717 218.593 216.95 218.593ZM229.835 218.815L228.604 218.936C227.635 219.03 226.935 219.326 226.504 219.824C226.087 220.322 225.879 220.955 225.879 221.722V227.192H223.84V217.341H225.818V219.057C226.343 217.9 227.413 217.261 229.028 217.14L229.694 217.099L229.835 218.815ZM237.604 227.192V212.961H246.648V214.657H239.663V219.118H246.244V220.813H239.663V227.192H237.604ZM257.322 222.61H250.358C250.506 224.696 251.542 225.739 253.467 225.739C254.597 225.739 255.62 225.369 256.535 224.629L257.161 226.062C256.703 226.452 256.138 226.762 255.465 226.991C254.792 227.219 254.106 227.334 253.406 227.334C251.831 227.334 250.587 226.883 249.671 225.981C248.77 225.08 248.319 223.835 248.319 222.247C248.319 221.237 248.514 220.342 248.904 219.562C249.308 218.781 249.867 218.176 250.58 217.745C251.307 217.315 252.127 217.099 253.043 217.099C254.375 217.099 255.418 217.53 256.171 218.391C256.939 219.252 257.322 220.443 257.322 221.964V222.61ZM253.083 218.593C252.302 218.593 251.677 218.842 251.206 219.34C250.748 219.824 250.472 220.524 250.378 221.439H255.566C255.526 220.524 255.29 219.824 254.859 219.34C254.442 218.842 253.85 218.593 253.083 218.593ZM265.282 217.099C267.637 217.099 268.814 218.425 268.814 221.076V227.192H266.775V221.177C266.775 220.342 266.607 219.73 266.271 219.34C265.948 218.95 265.436 218.754 264.737 218.754C263.916 218.754 263.256 219.01 262.758 219.522C262.26 220.033 262.011 220.719 262.011 221.581V227.192H259.973V217.341H261.971V218.916C262.294 218.324 262.745 217.873 263.323 217.563C263.902 217.254 264.555 217.099 265.282 217.099ZM277.316 217.099C279.671 217.099 280.849 218.425 280.849 221.076V227.192H278.81V221.177C278.81 220.342 278.642 219.73 278.305 219.34C277.982 218.95 277.471 218.754 276.771 218.754C275.95 218.754 275.291 219.01 274.793 219.522C274.295 220.033 274.046 220.719 274.046 221.581V227.192H272.007V217.341H274.006V218.916C274.329 218.324 274.779 217.873 275.358 217.563C275.937 217.254 276.589 217.099 277.316 217.099ZM284.042 227.192V217.341H286.08V227.192H284.042ZM283.9 212.941H286.242V215.06H283.9V212.941ZM300.639 217.099C302.846 217.099 303.949 218.425 303.949 221.076V227.192H301.91V221.157C301.91 220.322 301.762 219.717 301.466 219.34C301.184 218.95 300.719 218.754 300.073 218.754C299.333 218.754 298.748 219.01 298.317 219.522C297.887 220.033 297.671 220.733 297.671 221.621V227.192H295.632V221.157C295.632 220.322 295.484 219.717 295.188 219.34C294.892 218.95 294.428 218.754 293.795 218.754C293.042 218.754 292.45 219.01 292.019 219.522C291.588 220.033 291.373 220.733 291.373 221.621V227.192H289.334V217.341H291.333V218.835C291.642 218.283 292.059 217.86 292.584 217.563C293.109 217.254 293.708 217.099 294.381 217.099C295.902 217.099 296.891 217.732 297.348 218.997C297.658 218.405 298.102 217.94 298.681 217.604C299.259 217.267 299.912 217.099 300.639 217.099ZM311.424 227.334C310.455 227.334 309.601 227.125 308.861 226.708C308.134 226.291 307.569 225.699 307.165 224.932C306.775 224.151 306.58 223.249 306.58 222.227C306.58 221.19 306.775 220.289 307.165 219.522C307.569 218.741 308.134 218.142 308.861 217.725C309.601 217.308 310.455 217.099 311.424 217.099C312.393 217.099 313.241 217.308 313.968 217.725C314.708 218.142 315.273 218.741 315.663 219.522C316.067 220.289 316.269 221.19 316.269 222.227C316.269 223.249 316.067 224.151 315.663 224.932C315.273 225.699 314.708 226.291 313.968 226.708C313.241 227.125 312.393 227.334 311.424 227.334ZM311.424 225.719C312.326 225.719 313.012 225.423 313.483 224.831C313.968 224.238 314.21 223.37 314.21 222.227C314.21 221.096 313.968 220.235 313.483 219.643C312.999 219.037 312.313 218.734 311.424 218.734C310.536 218.734 309.85 219.037 309.365 219.643C308.881 220.235 308.639 221.096 308.639 222.227C308.639 223.37 308.874 224.238 309.345 224.831C309.83 225.423 310.523 225.719 311.424 225.719ZM324.938 218.815L323.707 218.936C322.738 219.03 322.038 219.326 321.607 219.824C321.19 220.322 320.982 220.955 320.982 221.722V227.192H318.943V217.341H320.921V219.057C321.446 217.9 322.516 217.261 324.131 217.14L324.797 217.099L324.938 218.815ZM334.98 222.61H328.015C328.163 224.696 329.2 225.739 331.124 225.739C332.255 225.739 333.277 225.369 334.192 224.629L334.818 226.062C334.361 226.452 333.795 226.762 333.123 226.991C332.45 227.219 331.763 227.334 331.064 227.334C329.489 227.334 328.244 226.883 327.329 225.981C326.427 225.08 325.977 223.835 325.977 222.247C325.977 221.237 326.172 220.342 326.562 219.562C326.966 218.781 327.524 218.176 328.238 217.745C328.964 217.315 329.785 217.099 330.7 217.099C332.033 217.099 333.076 217.53 333.829 218.391C334.596 219.252 334.98 220.443 334.98 221.964V222.61ZM330.741 218.593C329.96 218.593 329.334 218.842 328.863 219.34C328.406 219.824 328.13 220.524 328.036 221.439H333.224C333.183 220.524 332.948 219.824 332.517 219.34C332.1 218.842 331.508 218.593 330.741 218.593Z" fill="#2D3150"/>
<path d="M454.765 212.961H456.401V227.192H454.765V220.672H446.247V227.192H444.612V212.961H446.247V219.259H454.765V212.961ZM468.307 222.529H461.12C461.174 223.673 461.484 224.541 462.049 225.133C462.614 225.712 463.415 226.001 464.451 226.001C465.595 226.001 466.645 225.611 467.6 224.831L468.145 226.022C467.715 226.425 467.163 226.748 466.49 226.991C465.817 227.219 465.131 227.334 464.431 227.334C462.897 227.334 461.686 226.883 460.797 225.981C459.923 225.08 459.485 223.835 459.485 222.247C459.485 221.237 459.68 220.349 460.071 219.582C460.461 218.802 461.006 218.196 461.706 217.765C462.419 217.335 463.226 217.119 464.128 217.119C465.434 217.119 466.456 217.55 467.196 218.411C467.937 219.259 468.307 220.43 468.307 221.924V222.529ZM464.148 218.391C463.287 218.391 462.594 218.66 462.069 219.199C461.558 219.737 461.255 220.497 461.161 221.48H466.873C466.847 220.484 466.598 219.723 466.127 219.199C465.656 218.66 464.996 218.391 464.148 218.391ZM475.116 217.119C476.368 217.119 477.297 217.442 477.902 218.088C478.521 218.721 478.831 219.69 478.831 220.995V227.192H477.236V225.517C476.98 226.096 476.59 226.546 476.065 226.869C475.54 227.179 474.935 227.334 474.248 227.334C473.616 227.334 473.031 227.206 472.492 226.95C471.967 226.694 471.55 226.338 471.241 225.88C470.931 225.423 470.776 224.918 470.776 224.366C470.776 223.626 470.965 223.054 471.342 222.65C471.718 222.233 472.337 221.937 473.199 221.762C474.06 221.574 475.258 221.48 476.792 221.48H477.236V220.813C477.236 219.993 477.068 219.4 476.731 219.037C476.395 218.66 475.85 218.472 475.096 218.472C473.966 218.472 472.842 218.822 471.725 219.522L471.18 218.331C471.692 217.967 472.304 217.678 473.017 217.463C473.744 217.234 474.444 217.119 475.116 217.119ZM474.47 226.042C475.278 226.042 475.937 225.773 476.449 225.234C476.974 224.683 477.236 223.976 477.236 223.115V222.529H476.873C475.688 222.529 474.787 222.583 474.168 222.691C473.549 222.785 473.105 222.953 472.835 223.195C472.58 223.424 472.452 223.767 472.452 224.225C472.452 224.75 472.64 225.187 473.017 225.537C473.407 225.874 473.892 226.042 474.47 226.042ZM490.948 212.961V227.192H489.313V225.396C489.017 226.015 488.58 226.493 488.001 226.829C487.436 227.165 486.77 227.334 486.002 227.334C485.141 227.334 484.381 227.118 483.721 226.688C483.062 226.257 482.551 225.658 482.187 224.891C481.824 224.111 481.642 223.209 481.642 222.186C481.642 221.177 481.824 220.289 482.187 219.522C482.551 218.754 483.062 218.162 483.721 217.745C484.381 217.328 485.141 217.119 486.002 217.119C486.77 217.119 487.436 217.288 488.001 217.624C488.58 217.96 489.017 218.438 489.313 219.057V212.961H490.948ZM486.325 225.981C487.281 225.981 488.014 225.658 488.526 225.012C489.051 224.353 489.313 223.424 489.313 222.227C489.313 221.029 489.051 220.107 488.526 219.461C488.014 218.815 487.281 218.492 486.325 218.492C485.37 218.492 484.623 218.815 484.085 219.461C483.56 220.107 483.297 221.015 483.297 222.186C483.297 223.384 483.56 224.319 484.085 224.992C484.623 225.651 485.37 225.981 486.325 225.981ZM504.066 227.334C503.138 227.334 502.317 227.125 501.603 226.708C500.904 226.291 500.359 225.699 499.968 224.932C499.591 224.151 499.403 223.249 499.403 222.227C499.403 221.204 499.591 220.309 499.968 219.542C500.359 218.761 500.904 218.162 501.603 217.745C502.317 217.328 503.138 217.119 504.066 217.119C504.995 217.119 505.816 217.328 506.529 217.745C507.242 218.162 507.787 218.761 508.164 219.542C508.554 220.309 508.749 221.204 508.749 222.227C508.749 223.249 508.554 224.151 508.164 224.932C507.787 225.699 507.242 226.291 506.529 226.708C505.816 227.125 504.995 227.334 504.066 227.334ZM504.066 225.981C505.035 225.981 505.775 225.665 506.287 225.032C506.811 224.386 507.074 223.451 507.074 222.227C507.074 221.029 506.811 220.107 506.287 219.461C505.762 218.802 505.022 218.472 504.066 218.472C503.111 218.472 502.37 218.802 501.846 219.461C501.321 220.107 501.058 221.029 501.058 222.227C501.058 223.438 501.314 224.366 501.825 225.012C502.35 225.658 503.097 225.981 504.066 225.981ZM513.75 217.362H516.535V218.654H513.75V227.192H512.115V218.654H510.197V217.362H512.115V217.039C512.115 215.733 512.438 214.744 513.084 214.071C513.743 213.398 514.752 213.022 516.112 212.941L516.919 212.9L517.04 214.172L516.112 214.233C515.291 214.287 514.692 214.522 514.315 214.939C513.938 215.343 513.75 215.969 513.75 216.817V217.362ZM530.523 227.354C529.178 227.354 528.007 227.065 527.011 226.486C526.015 225.894 525.248 225.053 524.71 223.963C524.185 222.859 523.922 221.56 523.922 220.067C523.922 218.573 524.185 217.281 524.71 216.191C525.248 215.101 526.015 214.266 527.011 213.688C528.007 213.096 529.178 212.799 530.523 212.799C531.506 212.799 532.407 212.954 533.228 213.264C534.049 213.56 534.762 214.004 535.368 214.596L534.742 215.868C534.056 215.289 533.383 214.872 532.724 214.616C532.064 214.361 531.338 214.233 530.544 214.233C528.982 214.233 527.771 214.744 526.91 215.767C526.062 216.776 525.638 218.209 525.638 220.067C525.638 221.937 526.062 223.384 526.91 224.407C527.771 225.416 528.982 225.921 530.544 225.921C531.338 225.921 532.064 225.793 532.724 225.537C533.383 225.281 534.056 224.864 534.742 224.286L535.368 225.557C534.762 226.149 534.049 226.6 533.228 226.91C532.407 227.206 531.506 227.354 530.523 227.354ZM542.817 227.354C540.597 227.354 538.82 226.755 537.488 225.557L538.134 224.286C538.834 224.878 539.547 225.302 540.274 225.557C541.014 225.813 541.868 225.941 542.837 225.941C543.981 225.941 544.863 225.719 545.482 225.275C546.101 224.831 546.41 224.205 546.41 223.397C546.41 222.926 546.262 222.543 545.966 222.247C545.67 221.951 545.28 221.715 544.795 221.54C544.311 221.365 543.658 221.184 542.837 220.995C541.734 220.739 540.825 220.47 540.112 220.188C539.412 219.905 538.84 219.501 538.396 218.977C537.966 218.452 537.75 217.765 537.75 216.918C537.75 216.11 537.959 215.397 538.376 214.778C538.807 214.145 539.412 213.661 540.193 213.324C540.987 212.974 541.902 212.799 542.938 212.799C543.921 212.799 544.836 212.954 545.684 213.264C546.545 213.573 547.272 214.017 547.864 214.596L547.238 215.868C546.565 215.289 545.879 214.872 545.179 214.616C544.493 214.347 543.746 214.213 542.938 214.213C541.835 214.213 540.967 214.448 540.334 214.919C539.715 215.377 539.406 216.023 539.406 216.857C539.406 217.57 539.682 218.109 540.233 218.472C540.785 218.835 541.619 219.145 542.736 219.4C543.961 219.697 544.923 219.972 545.623 220.228C546.323 220.47 546.902 220.84 547.359 221.338C547.83 221.836 548.066 222.502 548.066 223.337C548.066 224.144 547.85 224.851 547.42 225.456C547.002 226.062 546.397 226.533 545.603 226.869C544.809 227.192 543.88 227.354 542.817 227.354Z" fill="#9C9FBB"/>
<defs>
<filter id="filter0_d_839_2544" x="0.0855713" y="0.899345" width="729.095" height="493.587" filterUnits="userSpaceOnUse" color-interpolation-filters="sRGB">
<feFlood flood-opacity="0" result="BackgroundImageFix"/>
<feColorMatrix in="SourceAlpha" type="matrix" values="0 0 0 0 0 0 0 0 0 0 0 0 0 0 0 0 0 0 127 0" result="hardAlpha"/>
<feOffset dy="89.761"/>
<feGaussianBlur stdDeviation="72.9308"/>
<feColorMatrix type="matrix" values="0 0 0 0 0 0 0 0 0 0 0 0 0 0 0 0 0 0 0.05 0"/>
<feBlend mode="normal" in2="BackgroundImageFix" result="effect1_dropShadow_839_2544"/>
<feBlend mode="normal" in="SourceGraphic" in2="effect1_dropShadow_839_2544" result="shape"/>
</filter>
</defs>
</svg>
