<svg width="105" height="16" viewBox="0 0 105 16" fill="none" xmlns="http://www.w3.org/2000/svg">
<path d="M10.7654 0.960984H12.4005V15.1924H10.7654V8.67218H2.24678V15.1924H0.611684V0.960984H2.24678V7.25914H10.7654V0.960984ZM24.3067 10.5293H17.1204C17.1742 11.6732 17.4837 12.5412 18.0489 13.1334C18.6141 13.712 19.4149 14.0014 20.4511 14.0014C21.595 14.0014 22.6447 13.6111 23.6002 12.8306L24.1452 14.0216C23.7146 14.4253 23.1628 14.7483 22.4899 14.9905C21.8171 15.2193 21.1307 15.3337 20.4309 15.3337C18.8968 15.3337 17.6856 14.8829 16.7974 13.9812C15.9226 13.0795 15.4853 11.8347 15.4853 10.2467C15.4853 9.2374 15.6804 8.3492 16.0707 7.58212C16.4609 6.80158 17.006 6.19599 17.7058 5.76534C18.419 5.3347 19.2265 5.11938 20.1281 5.11938C21.4335 5.11938 22.4563 5.55002 23.1965 6.41131C23.9366 7.25913 24.3067 8.42995 24.3067 9.92374V10.5293ZM20.1483 6.39112C19.287 6.39112 18.594 6.66027 18.0691 7.19858C17.5577 7.73688 17.2549 8.49723 17.1607 9.47964H22.8735C22.8466 8.48378 22.5976 7.72342 22.1266 7.19858C21.6556 6.66027 20.9961 6.39112 20.1483 6.39112ZM31.1165 5.11938C32.368 5.11938 33.2966 5.44236 33.9022 6.08832C34.5212 6.72083 34.8308 7.68978 34.8308 8.99516V15.1924H33.236V13.5169C32.9803 14.0956 32.5901 14.5464 32.0652 14.8694C31.5404 15.1789 30.9348 15.3337 30.2484 15.3337C29.6159 15.3337 29.0305 15.2058 28.4922 14.9501C27.9674 14.6945 27.5502 14.3378 27.2407 13.8803C26.9311 13.4227 26.7764 12.9181 26.7764 12.3663C26.7764 11.6261 26.9648 11.0542 27.3416 10.6504C27.7184 10.2333 28.3375 9.93719 29.1988 9.76225C30.06 9.57384 31.2578 9.47964 32.7919 9.47964H33.236V8.81349C33.236 7.99257 33.0678 7.40044 32.7314 7.03708C32.3949 6.66027 31.8499 6.47187 31.0963 6.47187C29.9658 6.47187 28.8421 6.82176 27.7251 7.52156L27.1801 6.33056C27.6915 5.96721 28.3038 5.67787 29.0171 5.46255C29.7438 5.23377 30.4436 5.11938 31.1165 5.11938ZM30.4705 14.0418C31.278 14.0418 31.9374 13.7726 32.4488 13.2343C32.9736 12.6825 33.236 11.976 33.236 11.1147V10.5293H32.8727C31.6884 10.5293 30.7867 10.5832 30.1677 10.6908C29.5487 10.785 29.1046 10.9532 28.8354 11.1955C28.5797 11.4243 28.4519 11.7674 28.4519 12.225C28.4519 12.7498 28.6403 13.1872 29.0171 13.5371C29.4073 13.8735 29.8918 14.0418 30.4705 14.0418ZM46.9481 0.960984V15.1924H45.313V13.3958C45.0169 14.0148 44.5796 14.4926 44.0009 14.829C43.4357 15.1655 42.7695 15.3337 42.0024 15.3337C41.1412 15.3337 40.3808 15.1184 39.7214 14.6877C39.062 14.2571 38.5506 13.6582 38.1872 12.8911C37.8239 12.1106 37.6422 11.2089 37.6422 10.1862C37.6422 9.17684 37.8239 8.28864 38.1872 7.52156C38.5506 6.75448 39.062 6.16234 39.7214 5.74516C40.3808 5.32797 41.1412 5.11938 42.0024 5.11938C42.7695 5.11938 43.4357 5.2876 44.0009 5.62404C44.5796 5.96048 45.0169 6.43822 45.313 7.05727V0.960984H46.9481ZM42.3254 13.9812C43.2809 13.9812 44.0143 13.6582 44.5257 13.0123C45.0506 12.3528 45.313 11.4243 45.313 10.2265C45.313 9.02881 45.0506 8.10696 44.5257 7.461C44.0143 6.81503 43.2809 6.49205 42.3254 6.49205C41.3699 6.49205 40.623 6.81503 40.0847 7.461C39.5599 8.10696 39.2975 9.01535 39.2975 10.1862C39.2975 11.3839 39.5599 12.3192 40.0847 12.9921C40.623 13.6515 41.3699 13.9812 42.3254 13.9812ZM60.0661 15.3337C59.1375 15.3337 58.3166 15.1251 57.6034 14.7079C56.9036 14.2907 56.3585 13.6986 55.9683 12.9315C55.5914 12.151 55.403 11.2493 55.403 10.2265C55.403 9.20376 55.5914 8.30883 55.9683 7.54174C56.3585 6.7612 56.9036 6.16234 57.6034 5.74516C58.3166 5.32797 59.1375 5.11938 60.0661 5.11938C60.9947 5.11938 61.8156 5.32797 62.5288 5.74516C63.2421 6.16234 63.7871 6.7612 64.1639 7.54174C64.5542 8.30883 64.7493 9.20376 64.7493 10.2265C64.7493 11.2493 64.5542 12.151 64.1639 12.9315C63.7871 13.6986 63.2421 14.2907 62.5288 14.7079C61.8156 15.1251 60.9947 15.3337 60.0661 15.3337ZM60.0661 13.9812C61.035 13.9812 61.7752 13.6649 62.2866 13.0324C62.8114 12.3865 63.0739 11.4512 63.0739 10.2265C63.0739 9.02881 62.8114 8.10696 62.2866 7.461C61.7617 6.80158 61.0216 6.47187 60.0661 6.47187C59.1106 6.47187 58.3704 6.80158 57.8456 7.461C57.3207 8.10696 57.0583 9.02881 57.0583 10.2265C57.0583 11.4377 57.314 12.3663 57.8254 13.0123C58.3502 13.6582 59.0971 13.9812 60.0661 13.9812ZM69.7497 5.36162H72.5354V6.65354H69.7497V15.1924H68.1146V6.65354H66.1969V5.36162H68.1146V5.03863C68.1146 3.73325 68.4376 2.74411 69.0836 2.07123C69.743 1.39836 70.7523 1.02154 72.1115 0.940798L72.919 0.900425L73.0401 2.17217L72.1115 2.23273C71.2906 2.28656 70.6917 2.52206 70.3149 2.93925C69.9381 3.34298 69.7497 3.96876 69.7497 4.81658V5.36162ZM86.5233 15.3539C85.1776 15.3539 84.0068 15.0645 83.0109 14.4859C82.015 13.8937 81.248 13.0526 80.7097 11.9626C80.1848 10.859 79.9224 9.56038 79.9224 8.06659C79.9224 6.5728 80.1848 5.28087 80.7097 4.19081C81.248 3.10074 82.015 2.26637 83.0109 1.68769C84.0068 1.09556 85.1776 0.799492 86.5233 0.799492C87.5057 0.799492 88.4074 0.954255 89.2283 1.26378C90.0492 1.55985 90.7625 2.00395 91.3681 2.59608L90.7423 3.86782C90.056 3.28915 89.3831 2.87196 88.7237 2.61627C88.0642 2.36057 87.3375 2.23273 86.5435 2.23273C84.9824 2.23273 83.7713 2.74411 82.91 3.76689C82.0622 4.77621 81.6382 6.20944 81.6382 8.06659C81.6382 9.93719 82.0622 11.3839 82.91 12.4067C83.7713 13.416 84.9824 13.9206 86.5435 13.9206C87.3375 13.9206 88.0642 13.7928 88.7237 13.5371C89.3831 13.2814 90.056 12.8642 90.7423 12.2855L91.3681 13.5573C90.7625 14.1494 90.0492 14.6002 89.2283 14.9098C88.4074 15.2058 87.5057 15.3539 86.5233 15.3539ZM98.8172 15.3539C96.5967 15.3539 94.8203 14.755 93.488 13.5573L94.1339 12.2855C94.8337 12.8777 95.547 13.3016 96.2737 13.5573C97.0138 13.813 97.8684 13.9408 98.8374 13.9408C99.9812 13.9408 100.863 13.7188 101.482 13.2747C102.101 12.8306 102.41 12.2048 102.41 11.3973C102.41 10.9263 102.262 10.5428 101.966 10.2467C101.67 9.95065 101.28 9.71514 100.795 9.5402C100.311 9.36525 99.6583 9.18357 98.8374 8.99516C97.7338 8.73947 96.8254 8.47032 96.1122 8.18771C95.4124 7.9051 94.8404 7.50137 94.3963 6.97653C93.9657 6.45168 93.7504 5.76534 93.7504 4.91752C93.7504 4.11006 93.959 3.39681 94.3762 2.77776C94.8068 2.14525 95.4124 1.66078 96.1929 1.32434C96.9869 0.974441 97.902 0.799492 98.9383 0.799492C99.9207 0.799492 100.836 0.954255 101.684 1.26378C102.545 1.5733 103.272 2.0174 103.864 2.59608L103.238 3.86782C102.565 3.28915 101.879 2.87196 101.179 2.61627C100.493 2.34712 99.7457 2.21254 98.9383 2.21254C97.8348 2.21254 96.9667 2.44805 96.3342 2.91906C95.7152 3.37662 95.4057 4.02259 95.4057 4.85696C95.4057 5.57021 95.6815 6.10851 96.2333 6.47187C96.7851 6.83522 97.6194 7.14475 98.7364 7.40044C99.9611 7.69651 100.923 7.97239 101.623 8.22808C102.323 8.47032 102.902 8.8404 103.359 9.33833C103.83 9.83626 104.066 10.5024 104.066 11.3368C104.066 12.1442 103.85 12.8508 103.42 13.4564C103.002 14.0619 102.397 14.533 101.603 14.8694C100.809 15.1924 99.8803 15.3539 98.8172 15.3539Z" fill="#9C9FBB"/>
</svg>
