<svg width="154" height="16" viewBox="0 0 154 16" fill="none" xmlns="http://www.w3.org/2000/svg">
<path d="M0.246592 0.960984H6.14102C7.64827 0.960984 8.81908 1.33107 9.65345 2.07123C10.4878 2.8114 10.905 3.86109 10.905 5.22031C10.905 6.56607 10.4878 7.61576 9.65345 8.36939C8.81908 9.12301 7.64827 9.49982 6.14102 9.49982H2.32579V15.1924H0.246592V0.960984ZM5.91896 7.82435C7.91069 7.82435 8.90655 6.95634 8.90655 5.22031C8.90655 3.49774 7.91069 2.63645 5.91896 2.63645H2.32579V7.82435H5.91896ZM21.6793 10.6101H14.715C14.8631 12.696 15.8993 13.739 17.8237 13.739C18.9542 13.739 19.9769 13.3689 20.8921 12.6287L21.5178 14.0619C21.0603 14.4522 20.4951 14.7617 19.8222 14.9905C19.1493 15.2193 18.463 15.3337 17.7632 15.3337C16.1886 15.3337 14.9438 14.8829 14.0287 13.9812C13.127 13.0795 12.6762 11.8347 12.6762 10.2467C12.6762 9.2374 12.8713 8.34247 13.2616 7.56193C13.6653 6.78139 14.2238 6.1758 14.9371 5.74516C15.6638 5.31451 16.4847 5.09919 17.3998 5.09919C18.7321 5.09919 19.7751 5.52984 20.5287 6.39112C21.2958 7.25241 21.6793 8.4434 21.6793 9.96411V10.6101ZM17.4402 6.59298C16.6596 6.59298 16.0339 6.84195 15.5629 7.33988C15.1053 7.82435 14.8294 8.52415 14.7352 9.43926H19.9231C19.8827 8.52415 19.6472 7.82435 19.2166 7.33988C18.7994 6.84195 18.2073 6.59298 17.4402 6.59298ZM28.8942 13.7591C29.2037 13.7591 29.5065 13.739 29.8026 13.6986L29.7017 15.2529C29.3652 15.3068 29.0153 15.3337 28.652 15.3337C27.3735 15.3337 26.418 15.0242 25.7855 14.4051C25.1665 13.7726 24.8569 12.8642 24.8569 11.68V6.91597H22.9392V5.34143H24.8569V2.37403H26.8958V5.34143H29.6007V6.91597H26.8958V11.5992C26.8958 13.0392 27.5619 13.7591 28.8942 13.7591ZM40.1893 10.6101H33.225C33.373 12.696 34.4093 13.739 36.3337 13.739C37.4641 13.739 38.4869 13.3689 39.402 12.6287L40.0278 14.0619C39.5702 14.4522 39.005 14.7617 38.3321 14.9905C37.6593 15.2193 36.9729 15.3337 36.2731 15.3337C34.6986 15.3337 33.4538 14.8829 32.5387 13.9812C31.637 13.0795 31.1862 11.8347 31.1862 10.2467C31.1862 9.2374 31.3813 8.34247 31.7716 7.56193C32.1753 6.78139 32.7338 6.1758 33.447 5.74516C34.1737 5.31451 34.9947 5.09919 35.9098 5.09919C37.2421 5.09919 38.285 5.52984 39.0387 6.39112C39.8057 7.25241 40.1893 8.4434 40.1893 9.96411V10.6101ZM35.9501 6.59298C35.1696 6.59298 34.5438 6.84195 34.0728 7.33988C33.6153 7.82435 33.3394 8.52415 33.2452 9.43926H38.4331C38.3927 8.52415 38.1572 7.82435 37.7266 7.33988C37.3094 6.84195 36.7172 6.59298 35.9501 6.59298ZM48.8351 6.81503L47.6037 6.93615C46.6347 7.03036 45.9349 7.32642 45.5043 7.82435C45.0871 8.32228 44.8785 8.95479 44.8785 9.72187V15.1924H42.8397V5.34143H44.818V7.05727C45.3428 5.89992 46.4127 5.26068 48.0276 5.13956L48.6937 5.09919L48.8351 6.81503ZM56.6044 15.1924V0.960984H65.6479V2.65664H58.6635V7.11783H65.2442V8.81349H58.6635V15.1924H56.6044ZM76.3221 10.6101H69.3578C69.5059 12.696 70.5421 13.739 72.4665 13.739C73.597 13.739 74.6197 13.3689 75.5349 12.6287L76.1606 14.0619C75.7031 14.4522 75.1379 14.7617 74.465 14.9905C73.7921 15.2193 73.1058 15.3337 72.406 15.3337C70.8314 15.3337 69.5866 14.8829 68.6715 13.9812C67.7698 13.0795 67.319 11.8347 67.319 10.2467C67.319 9.2374 67.5141 8.34247 67.9044 7.56193C68.3081 6.78139 68.8666 6.1758 69.5799 5.74516C70.3066 5.31451 71.1275 5.09919 72.0426 5.09919C73.3749 5.09919 74.4179 5.52984 75.1715 6.39112C75.9386 7.25241 76.3221 8.4434 76.3221 9.96411V10.6101ZM72.083 6.59298C71.3024 6.59298 70.6767 6.84195 70.2056 7.33988C69.7481 7.82435 69.4722 8.52415 69.378 9.43926H74.5659C74.5255 8.52415 74.29 7.82435 73.8594 7.33988C73.4422 6.84195 72.8501 6.59298 72.083 6.59298ZM84.2816 5.09919C86.6366 5.09919 87.8142 6.42476 87.8142 9.07591V15.1924H85.7753V9.17684C85.7753 8.34247 85.6071 7.73015 85.2707 7.33988C84.9477 6.94961 84.4363 6.75448 83.7365 6.75448C82.9156 6.75448 82.2562 7.01017 81.7583 7.52156C81.2603 8.03295 81.0114 8.71928 81.0114 9.58057V15.1924H78.9725V5.34143H80.971V6.91597C81.294 6.32383 81.7448 5.873 82.3235 5.56348C82.9021 5.25395 83.5548 5.09919 84.2816 5.09919ZM96.3161 5.09919C98.6712 5.09919 99.8487 6.42476 99.8487 9.07591V15.1924H97.8099V9.17684C97.8099 8.34247 97.6417 7.73015 97.3052 7.33988C96.9822 6.94961 96.4709 6.75448 95.7711 6.75448C94.9502 6.75448 94.2907 7.01017 93.7928 7.52156C93.2949 8.03295 93.0459 8.71928 93.0459 9.58057V15.1924H91.0071V5.34143H93.0055V6.91597C93.3285 6.32383 93.7793 5.873 94.358 5.56348C94.9367 5.25395 95.5894 5.09919 96.3161 5.09919ZM103.042 15.1924V5.34143H105.08V15.1924H103.042ZM102.9 0.940798H105.242V3.06037H102.9V0.940798ZM119.639 5.09919C121.846 5.09919 122.949 6.42476 122.949 9.07591V15.1924H120.91V9.15665C120.91 8.32228 120.762 7.71669 120.466 7.33988C120.184 6.94961 119.719 6.75448 119.073 6.75448C118.333 6.75448 117.748 7.01017 117.317 7.52156C116.887 8.03295 116.671 8.73274 116.671 9.62094V15.1924H114.632V9.15665C114.632 8.32228 114.484 7.71669 114.188 7.33988C113.892 6.94961 113.428 6.75448 112.795 6.75448C112.042 6.75448 111.45 7.01017 111.019 7.52156C110.588 8.03295 110.373 8.73274 110.373 9.62094V15.1924H108.334V5.34143H110.333V6.83522C110.642 6.28346 111.059 5.85955 111.584 5.56348C112.109 5.25395 112.708 5.09919 113.381 5.09919C114.902 5.09919 115.891 5.7317 116.348 6.99671C116.658 6.40458 117.102 5.94029 117.681 5.60385C118.259 5.26741 118.912 5.09919 119.639 5.09919ZM130.424 15.3337C129.455 15.3337 128.601 15.1251 127.861 14.7079C127.134 14.2907 126.569 13.6986 126.165 12.9315C125.775 12.151 125.58 11.2493 125.58 10.2265C125.58 9.1903 125.775 8.28864 126.165 7.52156C126.569 6.74102 127.134 6.14216 127.861 5.72497C128.601 5.30779 129.455 5.09919 130.424 5.09919C131.393 5.09919 132.241 5.30779 132.968 5.72497C133.708 6.14216 134.273 6.74102 134.663 7.52156C135.067 8.28864 135.269 9.1903 135.269 10.2265C135.269 11.2493 135.067 12.151 134.663 12.9315C134.273 13.6986 133.708 14.2907 132.968 14.7079C132.241 15.1251 131.393 15.3337 130.424 15.3337ZM130.424 13.7188C131.326 13.7188 132.012 13.4227 132.483 12.8306C132.968 12.2384 133.21 11.3704 133.21 10.2265C133.21 9.0961 132.968 8.23481 132.483 7.64268C131.999 7.03708 131.313 6.73429 130.424 6.73429C129.536 6.73429 128.85 7.03708 128.365 7.64268C127.881 8.23481 127.639 9.0961 127.639 10.2265C127.639 11.3704 127.874 12.2384 128.345 12.8306C128.83 13.4227 129.523 13.7188 130.424 13.7188ZM143.938 6.81503L142.707 6.93615C141.738 7.03036 141.038 7.32642 140.607 7.82435C140.19 8.32228 139.982 8.95479 139.982 9.72187V15.1924H137.943V5.34143H139.921V7.05727C140.446 5.89992 141.516 5.26068 143.131 5.13956L143.797 5.09919L143.938 6.81503ZM153.98 10.6101H147.015C147.163 12.696 148.2 13.739 150.124 13.739C151.255 13.739 152.277 13.3689 153.192 12.6287L153.818 14.0619C153.361 14.4522 152.795 14.7617 152.123 14.9905C151.45 15.2193 150.763 15.3337 150.064 15.3337C148.489 15.3337 147.244 14.8829 146.329 13.9812C145.427 13.0795 144.977 11.8347 144.977 10.2467C144.977 9.2374 145.172 8.34247 145.562 7.56193C145.966 6.78139 146.524 6.1758 147.238 5.74516C147.964 5.31451 148.785 5.09919 149.7 5.09919C151.033 5.09919 152.076 5.52984 152.829 6.39112C153.596 7.25241 153.98 8.4434 153.98 9.96411V10.6101ZM149.741 6.59298C148.96 6.59298 148.334 6.84195 147.863 7.33988C147.406 7.82435 147.13 8.52415 147.036 9.43926H152.224C152.183 8.52415 151.948 7.82435 151.517 7.33988C151.1 6.84195 150.508 6.59298 149.741 6.59298Z" fill="#2D3150"/>
</svg>
