<svg width="343" height="83" viewBox="0 0 343 83" fill="none" xmlns="http://www.w3.org/2000/svg">
<path d="M2.92206 2.83708V4.89609H0.863051V3.44267C0.863051 2.87745 0.957254 2.35934 1.14566 1.88832C1.33407 1.41731 1.65032 0.959747 2.09442 0.515647L2.8615 1.12124C2.33666 1.69991 2.04059 2.27186 1.9733 2.83708H2.92206ZM6.273 2.83708V4.89609H4.21399V3.44267C4.21399 2.87745 4.30819 2.35934 4.4966 1.88832C4.68501 1.41731 5.00126 0.959747 5.44536 0.515647L6.21244 1.12124C5.6876 1.69991 5.39153 2.27186 5.32424 2.83708H6.273ZM28.1394 0.636765H29.7543L24.7885 14.8682H23.3754L19.318 3.22062L15.2605 14.8682H13.8677L8.88162 0.636765H10.5571L14.5944 12.5265L18.7326 0.636765L19.9841 0.656951L24.0618 12.5467L28.1394 0.636765ZM39.4624 10.2051H32.2761C32.3299 11.349 32.6394 12.217 33.2046 12.8092C33.7698 13.3878 34.5706 13.6772 35.6068 13.6772C36.7507 13.6772 37.8004 13.2869 38.7559 12.5064L39.3009 13.6974C38.8703 14.1011 38.3185 14.4241 37.6456 14.6663C36.9728 14.8951 36.2864 15.0095 35.5866 15.0095C34.0525 15.0095 32.8413 14.5586 31.9531 13.657C31.0783 12.7553 30.641 11.5105 30.641 9.9225C30.641 8.91318 30.8361 8.02498 31.2264 7.2579C31.6166 6.47736 32.1617 5.87177 32.8615 5.44112C33.5747 5.01048 34.3822 4.79516 35.2838 4.79516C36.5892 4.79516 37.612 5.2258 38.3522 6.08709C39.0923 6.93492 39.4624 8.10573 39.4624 9.59952V10.2051ZM35.304 6.0669C34.4427 6.0669 33.7497 6.33605 33.2248 6.87436C32.7134 7.41266 32.4106 8.17301 32.3164 9.15542H38.0292C38.0023 8.15956 37.7533 7.3992 37.2823 6.87436C36.8113 6.33605 36.1518 6.0669 35.304 6.0669ZM56.1193 10.2051H48.933C48.9868 11.349 49.2963 12.217 49.8615 12.8092C50.4268 13.3878 51.2275 13.6772 52.2637 13.6772C53.4076 13.6772 54.4573 13.2869 55.4128 12.5064L55.9578 13.6974C55.5272 14.1011 54.9754 14.4241 54.3026 14.6663C53.6297 14.8951 52.9433 15.0095 52.2435 15.0095C50.7094 15.0095 49.4982 14.5586 48.61 13.657C47.7352 12.7553 47.2979 11.5105 47.2979 9.9225C47.2979 8.91318 47.493 8.02498 47.8833 7.2579C48.2736 6.47736 48.8186 5.87177 49.5184 5.44112C50.2316 5.01048 51.0391 4.79516 51.9407 4.79516C53.2461 4.79516 54.2689 5.2258 55.0091 6.08709C55.7492 6.93492 56.1193 8.10573 56.1193 9.59952V10.2051ZM51.9609 6.0669C51.0996 6.0669 50.4066 6.33605 49.8817 6.87436C49.3703 7.41266 49.0676 8.17301 48.9733 9.15542H54.6861C54.6592 8.15956 54.4102 7.3992 53.9392 6.87436C53.4682 6.33605 52.8088 6.0669 51.9609 6.0669ZM63.8778 4.79516C66.2329 4.79516 67.4105 6.09382 67.4105 8.69113V14.8682H65.7754V8.79206C65.7754 7.87695 65.5937 7.2108 65.2303 6.79361C64.8804 6.37643 64.3152 6.16783 63.5347 6.16783C62.633 6.16783 61.913 6.44371 61.3747 6.99548C60.8364 7.54724 60.5673 8.29413 60.5673 9.23616V14.8682H58.9322V5.0374H60.5471V6.65231C60.8701 6.04672 61.3209 5.58916 61.8996 5.27963C62.4782 4.95665 63.1377 4.79516 63.8778 4.79516ZM74.1398 15.0095C72.4845 15.0095 71.1724 14.5856 70.2034 13.7377L70.7485 12.5265C71.2733 12.9437 71.8049 13.2465 72.3432 13.4349C72.8949 13.6099 73.514 13.6974 74.2003 13.6974C74.927 13.6974 75.4788 13.5762 75.8556 13.334C76.2459 13.0783 76.441 12.715 76.441 12.2439C76.441 11.8537 76.3132 11.5441 76.0575 11.3154C75.8018 11.0866 75.3779 10.9049 74.7857 10.7703L73.1304 10.3868C72.2961 10.1984 71.6568 9.8754 71.2127 9.41784C70.7686 8.96028 70.5466 8.39506 70.5466 7.72219C70.5466 6.84744 70.8898 6.14092 71.5761 5.60262C72.2624 5.06431 73.1776 4.79516 74.3214 4.79516C75.0078 4.79516 75.6605 4.90955 76.2795 5.13833C76.8986 5.35365 77.4167 5.6699 77.8339 6.08709L77.2888 7.27808C76.3872 6.511 75.3981 6.12746 74.3214 6.12746C73.6351 6.12746 73.0968 6.26204 72.7065 6.53119C72.3297 6.78688 72.1413 7.15024 72.1413 7.62125C72.1413 8.01152 72.2557 8.32778 72.4845 8.57001C72.7267 8.79879 73.1103 8.97374 73.6351 9.09486L75.3106 9.49859C76.2257 9.71391 76.9053 10.0436 77.3494 10.4877C77.7935 10.9184 78.0156 11.4836 78.0156 12.1834C78.0156 13.0447 77.6657 13.731 76.9659 14.2424C76.2795 14.7538 75.3375 15.0095 74.1398 15.0095ZM89.1881 5.0374V14.8682H87.5934V13.1927C87.2838 13.7848 86.8465 14.2357 86.2812 14.5452C85.7295 14.8547 85.1037 15.0095 84.4039 15.0095C83.2331 15.0095 82.3516 14.6865 81.7595 14.0405C81.1674 13.3811 80.8713 12.4122 80.8713 11.1337V5.0374H82.5064V11.0933C82.5064 11.9681 82.6813 12.614 83.0312 13.0312C83.3811 13.4349 83.9329 13.6368 84.6865 13.6368C85.5478 13.6368 86.2409 13.3609 86.7657 12.8092C87.2906 12.2439 87.553 11.5038 87.553 10.5887V5.0374H89.1881ZM98.2022 6.20821L97.1324 6.30914C96.1231 6.40334 95.3896 6.71959 94.9321 7.2579C94.488 7.7962 94.2659 8.46235 94.2659 9.25635V14.8682H92.6308V5.0374H94.2255V6.75324C94.7773 5.60934 95.8606 4.97011 97.4755 4.83553L98.0609 4.79516L98.2022 6.20821ZM108.19 10.2051H101.004C101.057 11.349 101.367 12.217 101.932 12.8092C102.497 13.3878 103.298 13.6772 104.334 13.6772C105.478 13.6772 106.528 13.2869 107.483 12.5064L108.028 13.6974C107.598 14.1011 107.046 14.4241 106.373 14.6663C105.7 14.8951 105.014 15.0095 104.314 15.0095C102.78 15.0095 101.569 14.5586 100.681 13.657C99.8059 12.7553 99.3685 11.5105 99.3685 9.9225C99.3685 8.91318 99.5636 8.02498 99.9539 7.2579C100.344 6.47736 100.889 5.87177 101.589 5.44112C102.302 5.01048 103.11 4.79516 104.011 4.79516C105.317 4.79516 106.34 5.2258 107.08 6.08709C107.82 6.93492 108.19 8.10573 108.19 9.59952V10.2051ZM104.032 6.0669C103.17 6.0669 102.477 6.33605 101.952 6.87436C101.441 7.41266 101.138 8.17301 101.044 9.15542H106.757C106.73 8.15956 106.481 7.3992 106.01 6.87436C105.539 6.33605 104.879 6.0669 104.032 6.0669ZM120.931 13.6974C121.227 13.6974 121.523 13.6772 121.819 13.6368L121.738 14.9287C121.429 14.9826 121.092 15.0095 120.729 15.0095C119.545 15.0095 118.65 14.6999 118.044 14.0809C117.452 13.4618 117.156 12.6006 117.156 11.497V6.32933H115.238V5.0374H117.156V2.04981H118.791V5.0374H121.577V6.32933H118.791V11.3759C118.791 12.9235 119.504 13.6974 120.931 13.6974ZM128.82 4.79516C131.175 4.79516 132.353 6.09382 132.353 8.69113V14.8682H130.718V8.79206C130.718 7.87695 130.536 7.2108 130.173 6.79361C129.823 6.37643 129.258 6.16783 128.477 6.16783C127.576 6.16783 126.856 6.44371 126.317 6.99548C125.779 7.54724 125.51 8.29413 125.51 9.23616V14.8682H123.875V0.636765H125.51V6.61193C125.833 6.0198 126.277 5.56897 126.842 5.25945C127.421 4.94992 128.08 4.79516 128.82 4.79516ZM139.749 4.79516C141 4.79516 141.929 5.11814 142.534 5.76411C143.153 6.39661 143.463 7.36556 143.463 8.67095V14.8682H141.868V13.1927C141.612 13.7714 141.222 14.2222 140.697 14.5452C140.172 14.8547 139.567 15.0095 138.88 15.0095C138.248 15.0095 137.663 14.8816 137.124 14.6259C136.599 14.3702 136.182 14.0136 135.873 13.556C135.563 13.0985 135.408 12.5938 135.408 12.0421C135.408 11.3019 135.597 10.73 135.974 10.3262C136.35 9.90904 136.97 9.61298 137.831 9.43803C138.692 9.24962 139.89 9.15542 141.424 9.15542H141.868V8.48927C141.868 7.66835 141.7 7.07622 141.363 6.71287C141.027 6.33605 140.482 6.14765 139.728 6.14765C138.598 6.14765 137.474 6.49754 136.357 7.19734L135.812 6.00634C136.324 5.64299 136.936 5.35365 137.649 5.13833C138.376 4.90955 139.076 4.79516 139.749 4.79516ZM139.103 13.7175C139.91 13.7175 140.569 13.4484 141.081 12.9101C141.606 12.3583 141.868 11.6518 141.868 10.7905V10.2051H141.505C140.32 10.2051 139.419 10.2589 138.8 10.3666C138.181 10.4608 137.737 10.629 137.467 10.8713C137.212 11.1 137.084 11.4432 137.084 11.9008C137.084 12.4256 137.272 12.863 137.649 13.2129C138.039 13.5493 138.524 13.7175 139.103 13.7175ZM151.18 13.6974C151.476 13.6974 151.772 13.6772 152.068 13.6368L151.987 14.9287C151.677 14.9826 151.341 15.0095 150.978 15.0095C149.793 15.0095 148.898 14.6999 148.293 14.0809C147.701 13.4618 147.405 12.6006 147.405 11.497V6.32933H145.487V5.0374H147.405V2.04981H149.04V5.0374H151.825V6.32933H149.04V11.3759C149.04 12.9235 149.753 13.6974 151.18 13.6974ZM163.729 4.79516C164.98 4.79516 165.909 5.11814 166.514 5.76411C167.133 6.39661 167.443 7.36556 167.443 8.67095V14.8682H165.848V13.1927C165.592 13.7714 165.202 14.2222 164.677 14.5452C164.152 14.8547 163.547 15.0095 162.86 15.0095C162.228 15.0095 161.643 14.8816 161.104 14.6259C160.579 14.3702 160.162 14.0136 159.853 13.556C159.543 13.0985 159.388 12.5938 159.388 12.0421C159.388 11.3019 159.577 10.73 159.954 10.3262C160.33 9.90904 160.95 9.61298 161.811 9.43803C162.672 9.24962 163.87 9.15542 165.404 9.15542H165.848V8.48927C165.848 7.66835 165.68 7.07622 165.343 6.71287C165.007 6.33605 164.462 6.14765 163.708 6.14765C162.578 6.14765 161.454 6.49754 160.337 7.19734L159.792 6.00634C160.304 5.64299 160.916 5.35365 161.629 5.13833C162.356 4.90955 163.056 4.79516 163.729 4.79516ZM163.083 13.7175C163.89 13.7175 164.549 13.4484 165.061 12.9101C165.586 12.3583 165.848 11.6518 165.848 10.7905V10.2051H165.485C164.3 10.2051 163.399 10.2589 162.78 10.3666C162.161 10.4608 161.717 10.629 161.447 10.8713C161.192 11.1 161.064 11.4432 161.064 11.9008C161.064 12.4256 161.252 12.863 161.629 13.2129C162.019 13.5493 162.504 13.7175 163.083 13.7175ZM175.785 4.79516C178.14 4.79516 179.318 6.09382 179.318 8.69113V14.8682H177.683V8.79206C177.683 7.87695 177.501 7.2108 177.138 6.79361C176.788 6.37643 176.223 6.16783 175.442 6.16783C174.54 6.16783 173.82 6.44371 173.282 6.99548C172.744 7.54724 172.475 8.29413 172.475 9.23616V14.8682H170.84V5.0374H172.455V6.65231C172.778 6.04672 173.228 5.58916 173.807 5.27963C174.386 4.95665 175.045 4.79516 175.785 4.79516ZM189.762 5.05758H191.397L185.583 18.5017H183.907L185.563 14.747L181.404 5.05758H183.14L186.431 13.0918L189.762 5.05758ZM199.097 14.8682V5.0374H200.733V14.8682H199.097ZM198.936 0.77807H200.914V2.61503H198.936V0.77807ZM209.139 4.79516C211.494 4.79516 212.671 6.09382 212.671 8.69113V14.8682H211.036V8.79206C211.036 7.87695 210.854 7.2108 210.491 6.79361C210.141 6.37643 209.576 6.16783 208.795 6.16783C207.894 6.16783 207.174 6.44371 206.635 6.99548C206.097 7.54724 205.828 8.29413 205.828 9.23616V14.8682H204.193V5.0374H205.808V6.65231C206.131 6.04672 206.582 5.58916 207.16 5.27963C207.739 4.95665 208.398 4.79516 209.139 4.79516ZM218.25 5.0374H221.036V6.32933H218.25V14.8682H216.615V6.32933H214.697V5.0374H216.615V4.71441C216.615 3.40903 216.938 2.4199 217.584 1.74702C218.243 1.07414 219.252 0.697324 220.612 0.616579L221.419 0.576207L221.54 1.84795L220.612 1.90851C219.791 1.96234 219.192 2.19785 218.815 2.61503C218.438 3.01876 218.25 3.64454 218.25 4.49236V5.0374ZM227.076 15.0095C226.148 15.0095 225.327 14.8009 224.613 14.3837C223.914 13.9665 223.369 13.3744 222.978 12.6073C222.602 11.8267 222.413 10.9251 222.413 9.90231C222.413 8.87954 222.602 7.98461 222.978 7.21753C223.369 6.43699 223.914 5.83812 224.613 5.42094C225.327 5.00375 226.148 4.79516 227.076 4.79516C228.005 4.79516 228.826 5.00375 229.539 5.42094C230.252 5.83812 230.797 6.43699 231.174 7.21753C231.564 7.98461 231.759 8.87954 231.759 9.90231C231.759 10.9251 231.564 11.8267 231.174 12.6073C230.797 13.3744 230.252 13.9665 229.539 14.3837C228.826 14.8009 228.005 15.0095 227.076 15.0095ZM227.076 13.657C228.045 13.657 228.785 13.3407 229.297 12.7082C229.822 12.0623 230.084 11.127 230.084 9.90231C230.084 8.70459 229.822 7.78274 229.297 7.13678C228.772 6.47736 228.032 6.14765 227.076 6.14765C226.121 6.14765 225.381 6.47736 224.856 7.13678C224.331 7.78274 224.068 8.70459 224.068 9.90231C224.068 11.1135 224.324 12.0421 224.836 12.688C225.36 13.334 226.107 13.657 227.076 13.657ZM240.171 6.20821L239.101 6.30914C238.092 6.40334 237.358 6.71959 236.901 7.2579C236.457 7.7962 236.235 8.46235 236.235 9.25635V14.8682H234.599V5.0374H236.194V6.75324C236.746 5.60934 237.829 4.97011 239.444 4.83553L240.03 4.79516L240.171 6.20821ZM253.061 4.79516C255.241 4.79516 256.331 6.09382 256.331 8.69113V14.8682H254.696V8.77188C254.696 7.87022 254.534 7.2108 254.211 6.79361C253.902 6.37643 253.397 6.16783 252.697 6.16783C251.876 6.16783 251.23 6.44371 250.759 6.99548C250.288 7.54724 250.053 8.30086 250.053 9.25635V14.8682H248.418V8.77188C248.418 7.85676 248.256 7.19734 247.933 6.79361C247.61 6.37643 247.099 6.16783 246.399 6.16783C245.578 6.16783 244.932 6.44371 244.461 6.99548C243.99 7.54724 243.755 8.30086 243.755 9.25635V14.8682H242.12V5.0374H243.735V6.59175C244.031 6.01307 244.441 5.56897 244.966 5.25945C245.491 4.94992 246.096 4.79516 246.783 4.79516C248.303 4.79516 249.306 5.44112 249.79 6.73305C250.073 6.12746 250.504 5.65645 251.082 5.32001C251.661 4.97011 252.32 4.79516 253.061 4.79516ZM263.71 4.79516C264.962 4.79516 265.89 5.11814 266.496 5.76411C267.115 6.39661 267.425 7.36556 267.425 8.67095V14.8682H265.83V13.1927C265.574 13.7714 265.184 14.2222 264.659 14.5452C264.134 14.8547 263.529 15.0095 262.842 15.0095C262.21 15.0095 261.624 14.8816 261.086 14.6259C260.561 14.3702 260.144 14.0136 259.834 13.556C259.525 13.0985 259.37 12.5938 259.37 12.0421C259.37 11.3019 259.559 10.73 259.935 10.3262C260.312 9.90904 260.931 9.61298 261.793 9.43803C262.654 9.24962 263.852 9.15542 265.386 9.15542H265.83V8.48927C265.83 7.66835 265.662 7.07622 265.325 6.71287C264.989 6.33605 264.444 6.14765 263.69 6.14765C262.56 6.14765 261.436 6.49754 260.319 7.19734L259.774 6.00634C260.285 5.64299 260.898 5.35365 261.611 5.13833C262.338 4.90955 263.037 4.79516 263.71 4.79516ZM263.064 13.7175C263.872 13.7175 264.531 13.4484 265.043 12.9101C265.567 12.3583 265.83 11.6518 265.83 10.7905V10.2051H265.466C264.282 10.2051 263.381 10.2589 262.761 10.3666C262.142 10.4608 261.698 10.629 261.429 10.8713C261.173 11.1 261.046 11.4432 261.046 11.9008C261.046 12.4256 261.234 12.863 261.611 13.2129C262.001 13.5493 262.486 13.7175 263.064 13.7175ZM275.141 13.6974C275.437 13.6974 275.733 13.6772 276.029 13.6368L275.949 14.9287C275.639 14.9826 275.303 15.0095 274.939 15.0095C273.755 15.0095 272.86 14.6999 272.255 14.0809C271.662 13.4618 271.366 12.6006 271.366 11.497V6.32933H269.449V5.0374H271.366V2.04981H273.001V5.0374H275.787V6.32933H273.001V11.3759C273.001 12.9235 273.715 13.6974 275.141 13.6974ZM278.085 14.8682V5.0374H279.72V14.8682H278.085ZM277.924 0.77807H279.902V2.61503H277.924V0.77807ZM287.258 15.0095C286.33 15.0095 285.509 14.8009 284.796 14.3837C284.096 13.9665 283.551 13.3744 283.161 12.6073C282.784 11.8267 282.595 10.9251 282.595 9.90231C282.595 8.87954 282.784 7.98461 283.161 7.21753C283.551 6.43699 284.096 5.83812 284.796 5.42094C285.509 5.00375 286.33 4.79516 287.258 4.79516C288.187 4.79516 289.008 5.00375 289.721 5.42094C290.434 5.83812 290.979 6.43699 291.356 7.21753C291.747 7.98461 291.942 8.87954 291.942 9.90231C291.942 10.9251 291.747 11.8267 291.356 12.6073C290.979 13.3744 290.434 13.9665 289.721 14.3837C289.008 14.8009 288.187 15.0095 287.258 15.0095ZM287.258 13.657C288.227 13.657 288.968 13.3407 289.479 12.7082C290.004 12.0623 290.266 11.127 290.266 9.90231C290.266 8.70459 290.004 7.78274 289.479 7.13678C288.954 6.47736 288.214 6.14765 287.258 6.14765C286.303 6.14765 285.563 6.47736 285.038 7.13678C284.513 7.78274 284.251 8.70459 284.251 9.90231C284.251 11.1135 284.506 12.0421 285.018 12.688C285.543 13.334 286.289 13.657 287.258 13.657ZM299.727 4.79516C302.082 4.79516 303.26 6.09382 303.26 8.69113V14.8682H301.625V8.79206C301.625 7.87695 301.443 7.2108 301.08 6.79361C300.73 6.37643 300.165 6.16783 299.384 6.16783C298.482 6.16783 297.763 6.44371 297.224 6.99548C296.686 7.54724 296.417 8.29413 296.417 9.23616V14.8682H294.782V5.0374H296.397V6.65231C296.72 6.04672 297.17 5.58916 297.749 5.27963C298.328 4.95665 298.987 4.79516 299.727 4.79516ZM319.312 5.05758H320.947L315.133 18.5017H313.458L315.113 14.747L310.954 5.05758H312.69L315.981 13.0918L319.312 5.05758ZM326.999 15.0095C326.07 15.0095 325.249 14.8009 324.536 14.3837C323.836 13.9665 323.291 13.3744 322.901 12.6073C322.524 11.8267 322.336 10.9251 322.336 9.90231C322.336 8.87954 322.524 7.98461 322.901 7.21753C323.291 6.43699 323.836 5.83812 324.536 5.42094C325.249 5.00375 326.07 4.79516 326.999 4.79516C327.927 4.79516 328.748 5.00375 329.462 5.42094C330.175 5.83812 330.72 6.43699 331.097 7.21753C331.487 7.98461 331.682 8.87954 331.682 9.90231C331.682 10.9251 331.487 11.8267 331.097 12.6073C330.72 13.3744 330.175 13.9665 329.462 14.3837C328.748 14.8009 327.927 15.0095 326.999 15.0095ZM326.999 13.657C327.968 13.657 328.708 13.3407 329.219 12.7082C329.744 12.0623 330.007 11.127 330.007 9.90231C330.007 8.70459 329.744 7.78274 329.219 7.13678C328.694 6.47736 327.954 6.14765 326.999 6.14765C326.043 6.14765 325.303 6.47736 324.778 7.13678C324.253 7.78274 323.991 8.70459 323.991 9.90231C323.991 11.1135 324.247 12.0421 324.758 12.688C325.283 13.334 326.03 13.657 326.999 13.657ZM342.798 5.0374V14.8682H341.204V13.1927C340.894 13.7848 340.457 14.2357 339.892 14.5452C339.34 14.8547 338.714 15.0095 338.014 15.0095C336.843 15.0095 335.962 14.6865 335.37 14.0405C334.778 13.3811 334.482 12.4122 334.482 11.1337V5.0374H336.117V11.0933C336.117 11.9681 336.292 12.614 336.642 13.0312C336.991 13.4349 337.543 13.6368 338.297 13.6368C339.158 13.6368 339.851 13.3609 340.376 12.8092C340.901 12.2439 341.163 11.5038 341.163 10.5887V5.0374H342.798ZM6.05095 36.7952C8.40603 36.7952 9.58357 38.0938 9.58357 40.6911V46.8682H7.94847V40.7921C7.94847 39.8769 7.76679 39.2108 7.40344 38.7936C7.05354 38.3764 6.48832 38.1678 5.70778 38.1678C4.80612 38.1678 4.08614 38.4437 3.54784 38.9955C3.00954 39.5472 2.74038 40.2941 2.74038 41.2362V46.8682H1.10529V37.0374H2.7202V38.6523C3.04318 38.0467 3.49401 37.5892 4.07269 37.2796C4.65136 36.9567 5.31078 36.7952 6.05095 36.7952ZM21.2182 42.2051H14.0318C14.0857 43.349 14.3952 44.217 14.9604 44.8092C15.5256 45.3878 16.3263 45.6772 17.3626 45.6772C18.5065 45.6772 19.5562 45.2869 20.5117 44.5064L21.0567 45.6974C20.626 46.1011 20.0743 46.4241 19.4014 46.6663C18.7285 46.8951 18.0422 47.0095 17.3424 47.0095C15.8082 47.0095 14.597 46.5586 13.7088 45.657C12.8341 44.7553 12.3967 43.5105 12.3967 41.9225C12.3967 40.9132 12.5919 40.025 12.9821 39.2579C13.3724 38.4774 13.9174 37.8718 14.6172 37.4411C15.3305 37.0105 16.1379 36.7952 17.0396 36.7952C18.345 36.7952 19.3678 37.2258 20.1079 38.0871C20.8481 38.9349 21.2182 40.1057 21.2182 41.5995V42.2051ZM17.0598 38.0669C16.1985 38.0669 15.5054 38.3361 14.9806 38.8744C14.4692 39.4127 14.1664 40.173 14.0722 41.1554H19.7849C19.758 40.1596 19.5091 39.3992 19.038 38.8744C18.567 38.3361 17.9076 38.0669 17.0598 38.0669ZM32.2671 42.2051H25.0807C25.1345 43.349 25.4441 44.217 26.0093 44.8092C26.5745 45.3878 27.3752 45.6772 28.4115 45.6772C29.5554 45.6772 30.6051 45.2869 31.5605 44.5064L32.1056 45.6974C31.6749 46.1011 31.1232 46.4241 30.4503 46.6663C29.7774 46.8951 29.0911 47.0095 28.3913 47.0095C26.8571 47.0095 25.6459 46.5586 24.7577 45.657C23.883 44.7553 23.4456 43.5105 23.4456 41.9225C23.4456 40.9132 23.6408 40.025 24.031 39.2579C24.4213 38.4774 24.9663 37.8718 25.6661 37.4411C26.3794 37.0105 27.1868 36.7952 28.0885 36.7952C29.3939 36.7952 30.4166 37.2258 31.1568 38.0871C31.897 38.9349 32.2671 40.1057 32.2671 41.5995V42.2051ZM28.1087 38.0669C27.2474 38.0669 26.5543 38.3361 26.0295 38.8744C25.5181 39.4127 25.2153 40.173 25.1211 41.1554H30.8338C30.8069 40.1596 30.558 39.3992 30.0869 38.8744C29.6159 38.3361 28.9565 38.0669 28.1087 38.0669ZM43.8004 32.6368V46.8682H42.1653V45.0716C41.8693 45.6906 41.4319 46.1684 40.8532 46.5048C40.288 46.8412 39.6218 47.0095 38.8548 47.0095C37.9935 47.0095 37.2331 46.7941 36.5737 46.3635C35.9143 45.9329 35.4029 45.334 35.0395 44.5669C34.6762 43.7864 34.4945 42.8847 34.4945 41.8619C34.4945 40.8526 34.6762 39.9644 35.0395 39.1973C35.4029 38.4303 35.9143 37.8381 36.5737 37.4209C37.2331 37.0038 37.9935 36.7952 38.8548 36.7952C39.6218 36.7952 40.288 36.9634 40.8532 37.2998C41.4319 37.6363 41.8693 38.114 42.1653 38.7331V32.6368H43.8004ZM39.1777 45.657C40.1332 45.657 40.8667 45.334 41.3781 44.688C41.9029 44.0286 42.1653 43.1 42.1653 41.9023C42.1653 40.7046 41.9029 39.7827 41.3781 39.1368C40.8667 38.4908 40.1332 38.1678 39.1777 38.1678C38.2223 38.1678 37.4754 38.4908 36.9371 39.1368C36.4122 39.7827 36.1498 40.6911 36.1498 41.8619C36.1498 43.0597 36.4122 43.995 36.9371 44.6678C37.4754 45.3273 38.2223 45.657 39.1777 45.657ZM52.8408 46.8682V37.0374H54.4759V46.8682H52.8408ZM52.6793 32.7781H54.6575V34.615H52.6793V32.7781ZM61.267 47.0095C59.6117 47.0095 58.2996 46.5856 57.3307 45.7377L57.8757 44.5265C58.4005 44.9437 58.9321 45.2465 59.4704 45.4349C60.0222 45.6099 60.6412 45.6974 61.3276 45.6974C62.0543 45.6974 62.606 45.5762 62.9829 45.334C63.3731 45.0783 63.5683 44.715 63.5683 44.2439C63.5683 43.8537 63.4404 43.5441 63.1847 43.3154C62.929 43.0866 62.5051 42.9049 61.913 42.7703L60.2577 42.3868C59.4233 42.1984 58.7841 41.8754 58.34 41.4178C57.8959 40.9603 57.6738 40.3951 57.6738 39.7222C57.6738 38.8474 58.017 38.1409 58.7033 37.6026C59.3897 37.0643 60.3048 36.7952 61.4487 36.7952C62.135 36.7952 62.7877 36.9095 63.4068 37.1383C64.0258 37.3536 64.5439 37.6699 64.9611 38.0871L64.4161 39.2781C63.5144 38.511 62.5253 38.1275 61.4487 38.1275C60.7624 38.1275 60.224 38.262 59.8338 38.5312C59.457 38.7869 59.2686 39.1502 59.2686 39.6213C59.2686 40.0115 59.3829 40.3278 59.6117 40.57C59.854 40.7988 60.2375 40.9737 60.7624 41.0949L62.4378 41.4986C63.3529 41.7139 64.0325 42.0436 64.4766 42.4877C64.9207 42.9184 65.1428 43.4836 65.1428 44.1834C65.1428 45.0447 64.7929 45.731 64.0931 46.2424C63.4068 46.7538 62.4647 47.0095 61.267 47.0095ZM76.9777 47.0095C75.3224 47.0095 74.0103 46.5856 73.0413 45.7377L73.5864 44.5265C74.1112 44.9437 74.6428 45.2465 75.1811 45.4349C75.7329 45.6099 76.3519 45.6974 77.0382 45.6974C77.765 45.6974 78.3167 45.5762 78.6935 45.334C79.0838 45.0783 79.2789 44.715 79.2789 44.2439C79.2789 43.8537 79.1511 43.5441 78.8954 43.3154C78.6397 43.0866 78.2158 42.9049 77.6237 42.7703L75.9684 42.3868C75.134 42.1984 74.4948 41.8754 74.0507 41.4178C73.6066 40.9603 73.3845 40.3951 73.3845 39.7222C73.3845 38.8474 73.7277 38.1409 74.414 37.6026C75.1004 37.0643 76.0155 36.7952 77.1594 36.7952C77.8457 36.7952 78.4984 36.9095 79.1174 37.1383C79.7365 37.3536 80.2546 37.6699 80.6718 38.0871L80.1268 39.2781C79.2251 38.511 78.236 38.1275 77.1594 38.1275C76.473 38.1275 75.9347 38.262 75.5445 38.5312C75.1676 38.7869 74.9792 39.1502 74.9792 39.6213C74.9792 40.0115 75.0936 40.3278 75.3224 40.57C75.5646 40.7988 75.9482 40.9737 76.473 41.0949L78.1485 41.4986C79.0636 41.7139 79.7432 42.0436 80.1873 42.4877C80.6314 42.9184 80.8535 43.4836 80.8535 44.1834C80.8535 45.0447 80.5036 45.731 79.8038 46.2424C79.1174 46.7538 78.1754 47.0095 76.9777 47.0095ZM91.9856 42.2051H84.7993C84.8531 43.349 85.1626 44.217 85.7279 44.8092C86.2931 45.3878 87.0938 45.6772 88.13 45.6772C89.2739 45.6772 90.3236 45.2869 91.2791 44.5064L91.8241 45.6974C91.3935 46.1011 90.8417 46.4241 90.1689 46.6663C89.496 46.8951 88.8096 47.0095 88.1098 47.0095C86.5757 47.0095 85.3645 46.5586 84.4763 45.657C83.6016 44.7553 83.1642 43.5105 83.1642 41.9225C83.1642 40.9132 83.3593 40.025 83.7496 39.2579C84.1399 38.4774 84.6849 37.8718 85.3847 37.4411C86.0979 37.0105 86.9054 36.7952 87.8071 36.7952C89.1124 36.7952 90.1352 37.2258 90.8754 38.0871C91.6155 38.9349 91.9856 40.1057 91.9856 41.5995V42.2051ZM87.8272 38.0669C86.966 38.0669 86.2729 38.3361 85.748 38.8744C85.2367 39.4127 84.9339 40.173 84.8397 41.1554H90.5524C90.5255 40.1596 90.2765 39.3992 89.8055 38.8744C89.3345 38.3361 88.6751 38.0669 87.8272 38.0669ZM100.37 38.2082L99.3 38.3091C98.2907 38.4033 97.5573 38.7196 97.0997 39.2579C96.6556 39.7962 96.4336 40.4624 96.4336 41.2563V46.8682H94.7985V37.0374H96.3932V38.7532C96.945 37.6093 98.0283 36.9701 99.6432 36.8355L100.229 36.7952L100.37 38.2082ZM109.975 37.0576H111.61L107.371 46.8682H105.837L101.618 37.0576H103.354L106.644 45.0918L109.975 37.0576ZM121.82 42.2051H114.634C114.688 43.349 114.997 44.217 115.563 44.8092C116.128 45.3878 116.929 45.6772 117.965 45.6772C119.109 45.6772 120.158 45.2869 121.114 44.5064L121.659 45.6974C121.228 46.1011 120.677 46.4241 120.004 46.6663C119.331 46.8951 118.644 47.0095 117.945 47.0095C116.411 47.0095 115.199 46.5586 114.311 45.657C113.436 44.7553 112.999 43.5105 112.999 41.9225C112.999 40.9132 113.194 40.025 113.584 39.2579C113.975 38.4774 114.52 37.8718 115.22 37.4411C115.933 37.0105 116.74 36.7952 117.642 36.7952C118.947 36.7952 119.97 37.2258 120.71 38.0871C121.45 38.9349 121.82 40.1057 121.82 41.5995V42.2051ZM117.662 38.0669C116.801 38.0669 116.108 38.3361 115.583 38.8744C115.071 39.4127 114.769 40.173 114.674 41.1554H120.387C120.36 40.1596 120.111 39.3992 119.64 38.8744C119.169 38.3361 118.51 38.0669 117.662 38.0669ZM133.354 32.6368V46.8682H131.719V45.0716C131.423 45.6906 130.985 46.1684 130.407 46.5048C129.841 46.8412 129.175 47.0095 128.408 47.0095C127.547 47.0095 126.787 46.7941 126.127 46.3635C125.468 45.9329 124.956 45.334 124.593 44.5669C124.23 43.7864 124.048 42.8847 124.048 41.8619C124.048 40.8526 124.23 39.9644 124.593 39.1973C124.956 38.4303 125.468 37.8381 126.127 37.4209C126.787 37.0038 127.547 36.7952 128.408 36.7952C129.175 36.7952 129.841 36.9634 130.407 37.2998C130.985 37.6363 131.423 38.114 131.719 38.7331V32.6368H133.354ZM128.731 45.657C129.687 45.657 130.42 45.334 130.931 44.688C131.456 44.0286 131.719 43.1 131.719 41.9023C131.719 40.7046 131.456 39.7827 130.931 39.1368C130.42 38.4908 129.687 38.1678 128.731 38.1678C127.776 38.1678 127.029 38.4908 126.49 39.1368C125.966 39.7827 125.703 40.6911 125.703 41.8619C125.703 43.0597 125.966 43.995 126.49 44.6678C127.029 45.3273 127.776 45.657 128.731 45.657ZM142.394 46.8682V37.0374H144.029V46.8682H142.394ZM142.233 32.7781H144.211V34.615H142.233V32.7781ZM158.431 36.7952C160.611 36.7952 161.701 38.0938 161.701 40.6911V46.8682H160.066V40.7719C160.066 39.8702 159.904 39.2108 159.581 38.7936C159.272 38.3764 158.767 38.1678 158.067 38.1678C157.246 38.1678 156.6 38.4437 156.129 38.9955C155.658 39.5472 155.423 40.3009 155.423 41.2563V46.8682H153.788V40.7719C153.788 39.8568 153.626 39.1973 153.303 38.7936C152.98 38.3764 152.469 38.1678 151.769 38.1678C150.948 38.1678 150.302 38.4437 149.831 38.9955C149.36 39.5472 149.125 40.3009 149.125 41.2563V46.8682H147.49V37.0374H149.105V38.5917C149.401 38.0131 149.811 37.569 150.336 37.2594C150.861 36.9499 151.466 36.7952 152.153 36.7952C153.673 36.7952 154.676 37.4411 155.16 38.7331C155.443 38.1275 155.874 37.6564 156.452 37.32C157.031 36.9701 157.691 36.7952 158.431 36.7952ZM176.024 36.7952C178.205 36.7952 179.295 38.0938 179.295 40.6911V46.8682H177.659V40.7719C177.659 39.8702 177.498 39.2108 177.175 38.7936C176.865 38.3764 176.361 38.1678 175.661 38.1678C174.84 38.1678 174.194 38.4437 173.723 38.9955C173.252 39.5472 173.017 40.3009 173.017 41.2563V46.8682H171.382V40.7719C171.382 39.8568 171.22 39.1973 170.897 38.7936C170.574 38.3764 170.063 38.1678 169.363 38.1678C168.542 38.1678 167.896 38.4437 167.425 38.9955C166.954 39.5472 166.718 40.3009 166.718 41.2563V46.8682H165.083V37.0374H166.698V38.5917C166.994 38.0131 167.405 37.569 167.93 37.2594C168.454 36.9499 169.06 36.7952 169.746 36.7952C171.267 36.7952 172.27 37.4411 172.754 38.7331C173.037 38.1275 173.467 37.6564 174.046 37.32C174.625 36.9701 175.284 36.7952 176.024 36.7952ZM190.913 42.2051H183.727C183.781 43.349 184.09 44.217 184.655 44.8092C185.221 45.3878 186.021 45.6772 187.057 45.6772C188.201 45.6772 189.251 45.2869 190.207 44.5064L190.752 45.6974C190.321 46.1011 189.769 46.4241 189.096 46.6663C188.423 46.8951 187.737 47.0095 187.037 47.0095C185.503 47.0095 184.292 46.5586 183.404 45.657C182.529 44.7553 182.092 43.5105 182.092 41.9225C182.092 40.9132 182.287 40.025 182.677 39.2579C183.067 38.4774 183.612 37.8718 184.312 37.4411C185.025 37.0105 185.833 36.7952 186.735 36.7952C188.04 36.7952 189.063 37.2258 189.803 38.0871C190.543 38.9349 190.913 40.1057 190.913 41.5995V42.2051ZM186.755 38.0669C185.893 38.0669 185.2 38.3361 184.676 38.8744C184.164 39.4127 183.861 40.173 183.767 41.1554H189.48C189.453 40.1596 189.204 39.3992 188.733 38.8744C188.262 38.3361 187.603 38.0669 186.755 38.0669ZM202.446 32.6368V46.8682H200.811V45.0716C200.515 45.6906 200.078 46.1684 199.499 46.5048C198.934 46.8412 198.268 47.0095 197.501 47.0095C196.64 47.0095 195.879 46.7941 195.22 46.3635C194.56 45.9329 194.049 45.334 193.686 44.5669C193.322 43.7864 193.141 42.8847 193.141 41.8619C193.141 40.8526 193.322 39.9644 193.686 39.1973C194.049 38.4303 194.56 37.8381 195.22 37.4209C195.879 37.0038 196.64 36.7952 197.501 36.7952C198.268 36.7952 198.934 36.9634 199.499 37.2998C200.078 37.6363 200.515 38.114 200.811 38.7331V32.6368H202.446ZM197.824 45.657C198.779 45.657 199.513 45.334 200.024 44.688C200.549 44.0286 200.811 43.1 200.811 41.9023C200.811 40.7046 200.549 39.7827 200.024 39.1368C199.513 38.4908 198.779 38.1678 197.824 38.1678C196.868 38.1678 196.121 38.4908 195.583 39.1368C195.058 39.7827 194.796 40.6911 194.796 41.8619C194.796 43.0597 195.058 43.995 195.583 44.6678C196.121 45.3273 196.868 45.657 197.824 45.657ZM205.879 46.8682V37.0374H207.514V46.8682H205.879ZM205.717 32.7781H207.696V34.615H205.717V32.7781ZM214.971 36.7952C216.223 36.7952 217.151 37.1181 217.757 37.7641C218.376 38.3966 218.685 39.3656 218.685 40.6709V46.8682H217.091V45.1927C216.835 45.7714 216.445 46.2222 215.92 46.5452C215.395 46.8547 214.789 47.0095 214.103 47.0095C213.471 47.0095 212.885 46.8816 212.347 46.6259C211.822 46.3702 211.405 46.0136 211.095 45.556C210.786 45.0985 210.631 44.5938 210.631 44.0421C210.631 43.3019 210.819 42.73 211.196 42.3262C211.573 41.909 212.192 41.613 213.053 41.438C213.915 41.2496 215.112 41.1554 216.647 41.1554H217.091V40.4893C217.091 39.6684 216.923 39.0762 216.586 38.7129C216.25 38.3361 215.705 38.1476 214.951 38.1476C213.821 38.1476 212.697 38.4975 211.58 39.1973L211.035 38.0063C211.546 37.643 212.159 37.3536 212.872 37.1383C213.598 36.9095 214.298 36.7952 214.971 36.7952ZM214.325 45.7175C215.133 45.7175 215.792 45.4484 216.303 44.9101C216.828 44.3583 217.091 43.6518 217.091 42.7905V42.2051H216.727C215.543 42.2051 214.641 42.2589 214.022 42.3666C213.403 42.4608 212.959 42.629 212.69 42.8713C212.434 43.1 212.307 43.4432 212.307 43.9008C212.307 44.4256 212.495 44.863 212.872 45.2129C213.262 45.5493 213.747 45.7175 214.325 45.7175ZM226.402 45.6974C226.698 45.6974 226.994 45.6772 227.29 45.6368L227.21 46.9287C226.9 46.9826 226.564 47.0095 226.2 47.0095C225.016 47.0095 224.121 46.6999 223.516 46.0809C222.923 45.4618 222.627 44.6006 222.627 43.497V38.3293H220.71V37.0374H222.627V34.0498H224.262V37.0374H227.048V38.3293H224.262V43.3759C224.262 44.9235 224.976 45.6974 226.402 45.6974ZM237.582 42.2051H230.396C230.45 43.349 230.759 44.217 231.324 44.8092C231.89 45.3878 232.69 45.6772 233.727 45.6772C234.871 45.6772 235.92 45.2869 236.876 44.5064L237.421 45.6974C236.99 46.1011 236.438 46.4241 235.765 46.6663C235.093 46.8951 234.406 47.0095 233.706 47.0095C232.172 47.0095 230.961 46.5586 230.073 45.657C229.198 44.7553 228.761 43.5105 228.761 41.9225C228.761 40.9132 228.956 40.025 229.346 39.2579C229.736 38.4774 230.282 37.8718 230.981 37.4411C231.695 37.0105 232.502 36.7952 233.404 36.7952C234.709 36.7952 235.732 37.2258 236.472 38.0871C237.212 38.9349 237.582 40.1057 237.582 41.5995V42.2051ZM233.424 38.0669C232.563 38.0669 231.87 38.3361 231.345 38.8744C230.833 39.4127 230.53 40.173 230.436 41.1554H236.149C236.122 40.1596 235.873 39.3992 235.402 38.8744C234.931 38.3361 234.272 38.0669 233.424 38.0669ZM240.395 46.8682V32.6368H242.03V46.8682H240.395ZM252.536 37.0576H254.171L248.357 50.5017H246.682L248.337 46.747L244.178 37.0576H245.915L249.205 45.0918L252.536 37.0576ZM266.817 36.7952C267.678 36.7952 268.439 37.0038 269.098 37.4209C269.758 37.8381 270.269 38.4303 270.632 39.1973C270.996 39.9644 271.177 40.8526 271.177 41.8619C271.177 42.8847 270.996 43.7864 270.632 44.5669C270.269 45.334 269.758 45.9329 269.098 46.3635C268.439 46.7941 267.678 47.0095 266.817 47.0095C266.05 47.0095 265.377 46.8412 264.799 46.5048C264.233 46.1684 263.803 45.6906 263.507 45.0716V46.8682H261.872V32.6368H263.507V38.7331C263.803 38.114 264.233 37.6363 264.799 37.2998C265.377 36.9634 266.05 36.7952 266.817 36.7952ZM266.494 45.657C267.45 45.657 268.19 45.3273 268.715 44.6678C269.24 43.995 269.502 43.0597 269.502 41.8619C269.502 40.6911 269.24 39.7827 268.715 39.1368C268.19 38.4908 267.45 38.1678 266.494 38.1678C265.539 38.1678 264.799 38.4908 264.274 39.1368C263.762 39.7827 263.507 40.7046 263.507 41.9023C263.507 43.1 263.762 44.0286 264.274 44.688C264.799 45.334 265.539 45.657 266.494 45.657ZM280.951 37.0576H282.586L276.773 50.5017H275.097L276.752 46.747L272.594 37.0576H274.33L277.62 45.0918L280.951 37.0576ZM4.43604 79.0095C2.78076 79.0095 1.46864 78.5856 0.499696 77.7377L1.04473 76.5265C1.56957 76.9437 2.10115 77.2465 2.63945 77.4349C3.19121 77.6099 3.81026 77.6974 4.4966 77.6974C5.22331 77.6974 5.77507 77.5762 6.15188 77.334C6.54215 77.0783 6.73729 76.715 6.73729 76.2439C6.73729 75.8537 6.60944 75.5441 6.35375 75.3154C6.09805 75.0866 5.67414 74.9049 5.082 74.7703L3.42672 74.3868C2.59235 74.1984 1.95312 73.8754 1.50901 73.4178C1.06491 72.9603 0.842864 72.3951 0.842864 71.7222C0.842864 70.8474 1.18603 70.1409 1.87237 69.6026C2.55871 69.0643 3.47382 68.7952 4.61772 68.7952C5.30405 68.7952 5.95675 68.9095 6.5758 69.1383C7.19485 69.3536 7.71296 69.6699 8.13015 70.0871L7.58512 71.2781C6.68346 70.511 5.69432 70.1275 4.61772 70.1275C3.93138 70.1275 3.39308 70.262 3.00281 70.5312C2.62599 70.7869 2.43759 71.1502 2.43759 71.6213C2.43759 72.0115 2.55198 72.3278 2.78076 72.57C3.02299 72.7988 3.40653 72.9737 3.93138 73.0949L5.60685 73.4986C6.52197 73.7139 7.20157 74.0436 7.64567 74.4877C8.08978 74.9184 8.31183 75.4836 8.31183 76.1834C8.31183 77.0447 7.96193 77.731 7.26213 78.2424C6.5758 78.7538 5.63377 79.0095 4.43604 79.0095ZM11.2079 78.8682V69.0374H12.843V78.8682H11.2079ZM11.0464 64.7781H13.0247V66.615H11.0464V64.7781ZM27.2444 68.7952C29.4246 68.7952 30.5146 70.0938 30.5146 72.6911V78.8682H28.8795V72.7719C28.8795 71.8702 28.718 71.2108 28.3951 70.7936C28.0855 70.3764 27.5809 70.1678 26.8811 70.1678C26.0602 70.1678 25.4142 70.4437 24.9432 70.9955C24.4722 71.5472 24.2367 72.3009 24.2367 73.2563V78.8682H22.6016V72.7719C22.6016 71.8568 22.4401 71.1973 22.1171 70.7936C21.7941 70.3764 21.2827 70.1678 20.5829 70.1678C19.762 70.1678 19.1161 70.4437 18.645 70.9955C18.174 71.5472 17.9385 72.3009 17.9385 73.2563V78.8682H16.3034V69.0374H17.9183V70.5917C18.2144 70.0131 18.6249 69.569 19.1497 69.2594C19.6745 68.9499 20.2801 68.7952 20.9665 68.7952C22.4872 68.7952 23.4898 69.4411 23.9742 70.7331C24.2569 70.1275 24.6875 69.6564 25.2662 69.32C25.8449 68.9701 26.5043 68.7952 27.2444 68.7952ZM38.8428 68.7952C39.7041 68.7952 40.4644 69.0105 41.1238 69.4411C41.7833 69.8718 42.2946 70.4774 42.658 71.2579C43.0214 72.025 43.203 72.9199 43.203 73.9427C43.203 74.9655 43.0214 75.8604 42.658 76.6275C42.2946 77.3811 41.7833 77.9665 41.1238 78.3837C40.4779 78.8009 39.7175 79.0095 38.8428 79.0095C38.0757 79.0095 37.4028 78.8412 36.8241 78.5048C36.2589 78.1684 35.8283 77.6906 35.5322 77.0716V82.5017H33.8971V69.0374H35.5322V70.7331C35.8283 70.114 36.2589 69.6363 36.8241 69.2998C37.4028 68.9634 38.0757 68.7952 38.8428 68.7952ZM38.5198 77.657C39.4753 77.657 40.2155 77.334 40.7403 76.688C41.2651 76.0421 41.5276 75.127 41.5276 73.9427C41.5276 72.7584 41.2651 71.8366 40.7403 71.1772C40.2155 70.5043 39.4753 70.1678 38.5198 70.1678C37.5643 70.1678 36.8241 70.4908 36.2993 71.1368C35.7879 71.7827 35.5322 72.7046 35.5322 73.9023C35.5322 75.1 35.7879 76.0286 36.2993 76.688C36.8241 77.334 37.5643 77.657 38.5198 77.657ZM46.0499 78.8682V64.6368H47.685V78.8682H46.0499ZM58.1905 69.0576H59.8256L54.0119 82.5017H52.3364L53.9917 78.747L49.8333 69.0576H51.5693L54.8597 77.0918L58.1905 69.0576ZM71.6848 79.0095C70.7158 79.0095 69.8747 78.8009 69.1615 78.3837C68.4482 77.9665 67.8964 77.3811 67.5062 76.6275C67.1294 75.8604 66.941 74.9655 66.941 73.9427C66.941 72.9199 67.1361 72.025 67.5264 71.2579C67.9301 70.4774 68.4886 69.8718 69.2018 69.4411C69.9285 69.0105 70.7764 68.7952 71.7453 68.7952C72.4047 68.7952 73.0507 68.9163 73.6832 69.1585C74.3157 69.3873 74.8271 69.6968 75.2174 70.0871L74.6723 71.2983C73.7438 70.5446 72.8017 70.1678 71.8462 70.1678C70.8369 70.1678 70.0497 70.4975 69.4844 71.157C68.9192 71.8164 68.6366 72.745 68.6366 73.9427C68.6366 75.127 68.9192 76.0421 69.4844 76.688C70.0497 77.334 70.8369 77.657 71.8462 77.657C72.8017 77.657 73.7438 77.2802 74.6723 76.5265L75.2174 77.7377C74.8002 78.128 74.2753 78.4375 73.6428 78.6663C73.0103 78.8951 72.3576 79.0095 71.6848 79.0095ZM81.6672 79.0095C80.7387 79.0095 79.9178 78.8009 79.2045 78.3837C78.5047 77.9665 77.9597 77.3744 77.5694 76.6073C77.1926 75.8267 77.0042 74.9251 77.0042 73.9023C77.0042 72.8795 77.1926 71.9846 77.5694 71.2175C77.9597 70.437 78.5047 69.8381 79.2045 69.4209C79.9178 69.0038 80.7387 68.7952 81.6672 68.7952C82.5958 68.7952 83.4167 69.0038 84.13 69.4209C84.8432 69.8381 85.3883 70.437 85.7651 71.2175C86.1553 71.9846 86.3505 72.8795 86.3505 73.9023C86.3505 74.9251 86.1553 75.8267 85.7651 76.6073C85.3883 77.3744 84.8432 77.9665 84.13 78.3837C83.4167 78.8009 82.5958 79.0095 81.6672 79.0095ZM81.6672 77.657C82.6362 77.657 83.3764 77.3407 83.8877 76.7082C84.4126 76.0623 84.675 75.127 84.675 73.9023C84.675 72.7046 84.4126 71.7827 83.8877 71.1368C83.3629 70.4774 82.6227 70.1476 81.6672 70.1476C80.7118 70.1476 79.9716 70.4774 79.4467 71.1368C78.9219 71.7827 78.6595 72.7046 78.6595 73.9023C78.6595 75.1135 78.9152 76.0421 79.4266 76.688C79.9514 77.334 80.6983 77.657 81.6672 77.657ZM94.1361 68.7952C96.4912 68.7952 97.6687 70.0938 97.6687 72.6911V78.8682H96.0336V72.7921C96.0336 71.8769 95.852 71.2108 95.4886 70.7936C95.1387 70.3764 94.5735 70.1678 93.7929 70.1678C92.8913 70.1678 92.1713 70.4437 91.633 70.9955C91.0947 71.5472 90.8256 72.2941 90.8256 73.2362V78.8682H89.1905V69.0374H90.8054V70.6523C91.1283 70.0467 91.5792 69.5892 92.1579 69.2796C92.7365 68.9567 93.396 68.7952 94.1361 68.7952ZM105.387 77.6974C105.683 77.6974 105.979 77.6772 106.275 77.6368L106.195 78.9287C105.885 78.9826 105.549 79.0095 105.185 79.0095C104.001 79.0095 103.106 78.6999 102.501 78.0809C101.908 77.4618 101.612 76.6006 101.612 75.497V70.3293H99.6946V69.0374H101.612V66.0498H103.247V69.0374H106.033V70.3293H103.247V75.3759C103.247 76.9235 103.961 77.6974 105.387 77.6974ZM112.328 68.7952C113.58 68.7952 114.508 69.1181 115.114 69.7641C115.733 70.3966 116.042 71.3656 116.042 72.6709V78.8682H114.448V77.1927C114.192 77.7714 113.802 78.2222 113.277 78.5452C112.752 78.8547 112.146 79.0095 111.46 79.0095C110.828 79.0095 110.242 78.8816 109.704 78.6259C109.179 78.3702 108.762 78.0136 108.452 77.556C108.143 77.0985 107.988 76.5938 107.988 76.0421C107.988 75.3019 108.176 74.73 108.553 74.3262C108.93 73.909 109.549 73.613 110.41 73.438C111.272 73.2496 112.469 73.1554 114.004 73.1554H114.448V72.4893C114.448 71.6684 114.279 71.0762 113.943 70.7129C113.607 70.3361 113.062 70.1476 112.308 70.1476C111.178 70.1476 110.054 70.4975 108.937 71.1973L108.392 70.0063C108.903 69.643 109.516 69.3536 110.229 69.1383C110.955 68.9095 111.655 68.7952 112.328 68.7952ZM111.682 77.7175C112.49 77.7175 113.149 77.4484 113.66 76.9101C114.185 76.3583 114.448 75.6518 114.448 74.7905V74.2051H114.084C112.9 74.2051 111.998 74.2589 111.379 74.3666C110.76 74.4608 110.316 74.629 110.047 74.8713C109.791 75.1 109.664 75.4432 109.664 75.9008C109.664 76.4256 109.852 76.863 110.229 77.2129C110.619 77.5493 111.104 77.7175 111.682 77.7175ZM123.598 79.0095C122.629 79.0095 121.788 78.8009 121.074 78.3837C120.361 77.9665 119.809 77.3811 119.419 76.6275C119.042 75.8604 118.854 74.9655 118.854 73.9427C118.854 72.9199 119.049 72.025 119.439 71.2579C119.843 70.4774 120.401 69.8718 121.115 69.4411C121.841 69.0105 122.689 68.7952 123.658 68.7952C124.318 68.7952 124.964 68.9163 125.596 69.1585C126.229 69.3873 126.74 69.6968 127.13 70.0871L126.585 71.2983C125.657 70.5446 124.715 70.1678 123.759 70.1678C122.75 70.1678 121.963 70.4975 121.397 71.157C120.832 71.8164 120.55 72.745 120.55 73.9427C120.55 75.127 120.832 76.0421 121.397 76.688C121.963 77.334 122.75 77.657 123.759 77.657C124.715 77.657 125.657 77.2802 126.585 76.5265L127.13 77.7377C126.713 78.128 126.188 78.4375 125.556 78.6663C124.923 78.8951 124.271 79.0095 123.598 79.0095ZM133.842 77.6974C134.138 77.6974 134.434 77.6772 134.73 77.6368L134.65 78.9287C134.34 78.9826 134.004 79.0095 133.64 79.0095C132.456 79.0095 131.561 78.6999 130.955 78.0809C130.363 77.4618 130.067 76.6006 130.067 75.497V70.3293H128.15V69.0374H130.067V66.0498H131.702V69.0374H134.488V70.3293H131.702V75.3759C131.702 76.9235 132.416 77.6974 133.842 77.6974ZM136.786 78.8682V69.0374H138.421V78.8682H136.786ZM136.625 64.7781H138.603V66.615H136.625V64.7781ZM146.827 68.7952C149.182 68.7952 150.36 70.0938 150.36 72.6911V78.8682H148.725V72.7921C148.725 71.8769 148.543 71.2108 148.18 70.7936C147.83 70.3764 147.265 70.1678 146.484 70.1678C145.582 70.1678 144.862 70.4437 144.324 70.9955C143.786 71.5472 143.517 72.2941 143.517 73.2362V78.8682H141.882V69.0374H143.497V70.6523C143.82 70.0467 144.27 69.5892 144.849 69.2796C145.428 68.9567 146.087 68.7952 146.827 68.7952ZM162.56 69.0374V78.202C162.56 79.6689 162.183 80.7724 161.429 81.5126C160.676 82.2662 159.559 82.643 158.078 82.643C156.356 82.643 154.909 82.1989 153.738 81.3107L154.283 80.0995C154.943 80.5302 155.562 80.8397 156.14 81.0281C156.719 81.2165 157.365 81.3107 158.078 81.3107C159.02 81.3107 159.734 81.055 160.218 80.5436C160.703 80.0457 160.945 79.3123 160.945 78.3433V76.6073C160.662 77.2398 160.225 77.7243 159.633 78.0607C159.054 78.3971 158.368 78.5654 157.574 78.5654C156.712 78.5654 155.945 78.3635 155.272 77.9598C154.613 77.556 154.095 76.9841 153.718 76.2439C153.355 75.5038 153.173 74.6492 153.173 73.6803C153.173 72.7113 153.355 71.8568 153.718 71.1166C154.095 70.3764 154.613 69.8045 155.272 69.4008C155.945 68.997 156.712 68.7952 157.574 68.7952C158.354 68.7952 159.034 68.9634 159.613 69.2998C160.191 69.6363 160.629 70.114 160.925 70.7331V69.0374H162.56ZM157.897 77.2129C158.839 77.2129 159.579 76.9034 160.117 76.2843C160.655 75.6518 160.925 74.7838 160.925 73.6803C160.925 72.5902 160.655 71.7356 160.117 71.1166C159.592 70.4841 158.852 70.1678 157.897 70.1678C156.941 70.1678 156.188 70.4841 155.636 71.1166C155.098 71.7356 154.828 72.5902 154.828 73.6803C154.828 74.7838 155.098 75.6518 155.636 76.2843C156.188 76.9034 156.941 77.2129 157.897 77.2129ZM175.676 79.0095C174.747 79.0095 173.926 78.8009 173.213 78.3837C172.513 77.9665 171.968 77.3744 171.578 76.6073C171.201 75.8267 171.013 74.9251 171.013 73.9023C171.013 72.8795 171.201 71.9846 171.578 71.2175C171.968 70.437 172.513 69.8381 173.213 69.4209C173.926 69.0038 174.747 68.7952 175.676 68.7952C176.604 68.7952 177.425 69.0038 178.139 69.4209C178.852 69.8381 179.397 70.437 179.774 71.2175C180.164 71.9846 180.359 72.8795 180.359 73.9023C180.359 74.9251 180.164 75.8267 179.774 76.6073C179.397 77.3744 178.852 77.9665 178.139 78.3837C177.425 78.8009 176.604 79.0095 175.676 79.0095ZM175.676 77.657C176.645 77.657 177.385 77.3407 177.896 76.7082C178.421 76.0623 178.684 75.127 178.684 73.9023C178.684 72.7046 178.421 71.7827 177.896 71.1368C177.371 70.4774 176.631 70.1476 175.676 70.1476C174.72 70.1476 173.98 70.4774 173.455 71.1368C172.93 71.7827 172.668 72.7046 172.668 73.9023C172.668 75.1135 172.924 76.0421 173.435 76.688C173.96 77.334 174.707 77.657 175.676 77.657ZM191.475 69.0374V78.8682H189.881V77.1927C189.571 77.7848 189.134 78.2357 188.569 78.5452C188.017 78.8547 187.391 79.0095 186.691 79.0095C185.52 79.0095 184.639 78.6865 184.047 78.0405C183.455 77.3811 183.159 76.4122 183.159 75.1337V69.0374H184.794V75.0933C184.794 75.9681 184.969 76.614 185.319 77.0312C185.669 77.4349 186.22 77.6368 186.974 77.6368C187.835 77.6368 188.528 77.3609 189.053 76.8092C189.578 76.2439 189.84 75.5038 189.84 74.5887V69.0374H191.475ZM200.49 70.2082L199.42 70.3091C198.41 70.4033 197.677 70.7196 197.219 71.2579C196.775 71.7962 196.553 72.4624 196.553 73.2563V78.8682H194.918V69.0374H196.513V70.7532C197.065 69.6093 198.148 68.9701 199.763 68.8355L200.348 68.7952L200.49 70.2082ZM212.366 77.6974C212.662 77.6974 212.958 77.6772 213.255 77.6368L213.174 78.9287C212.864 78.9826 212.528 79.0095 212.164 79.0095C210.98 79.0095 210.085 78.6999 209.48 78.0809C208.888 77.4618 208.591 76.6006 208.591 75.497V70.3293H206.674V69.0374H208.591V66.0498H210.227V69.0374H213.012V70.3293H210.227V75.3759C210.227 76.9235 210.94 77.6974 212.366 77.6974ZM223.546 74.2051H216.36C216.414 75.349 216.723 76.217 217.289 76.8092C217.854 77.3878 218.655 77.6772 219.691 77.6772C220.835 77.6772 221.884 77.2869 222.84 76.5064L223.385 77.6974C222.954 78.1011 222.403 78.4241 221.73 78.6663C221.057 78.8951 220.37 79.0095 219.671 79.0095C218.136 79.0095 216.925 78.5586 216.037 77.657C215.162 76.7553 214.725 75.5105 214.725 73.9225C214.725 72.9132 214.92 72.025 215.31 71.2579C215.701 70.4774 216.246 69.8718 216.945 69.4411C217.659 69.0105 218.466 68.7952 219.368 68.7952C220.673 68.7952 221.696 69.2258 222.436 70.0871C223.176 70.9349 223.546 72.1057 223.546 73.5995V74.2051ZM219.388 70.0669C218.527 70.0669 217.834 70.3361 217.309 70.8744C216.797 71.4127 216.495 72.173 216.4 73.1554H222.113C222.086 72.1596 221.837 71.3992 221.366 70.8744C220.895 70.3361 220.236 70.0669 219.388 70.0669ZM230.356 68.7952C231.608 68.7952 232.536 69.1181 233.142 69.7641C233.761 70.3966 234.07 71.3656 234.07 72.6709V78.8682H232.476V77.1927C232.22 77.7714 231.83 78.2222 231.305 78.5452C230.78 78.8547 230.174 79.0095 229.488 79.0095C228.856 79.0095 228.27 78.8816 227.732 78.6259C227.207 78.3702 226.79 78.0136 226.48 77.556C226.171 77.0985 226.016 76.5938 226.016 76.0421C226.016 75.3019 226.205 74.73 226.581 74.3262C226.958 73.909 227.577 73.613 228.438 73.438C229.3 73.2496 230.497 73.1554 232.032 73.1554H232.476V72.4893C232.476 71.6684 232.308 71.0762 231.971 70.7129C231.635 70.3361 231.09 70.1476 230.336 70.1476C229.206 70.1476 228.082 70.4975 226.965 71.1973L226.42 70.0063C226.931 69.643 227.544 69.3536 228.257 69.1383C228.983 68.9095 229.683 68.7952 230.356 68.7952ZM229.71 77.7175C230.518 77.7175 231.177 77.4484 231.688 76.9101C232.213 76.3583 232.476 75.6518 232.476 74.7905V74.2051H232.112C230.928 74.2051 230.026 74.2589 229.407 74.3666C228.788 74.4608 228.344 74.629 228.075 74.8713C227.819 75.1 227.692 75.4432 227.692 75.9008C227.692 76.4256 227.88 76.863 228.257 77.2129C228.647 77.5493 229.132 77.7175 229.71 77.7175ZM248.408 68.7952C250.588 68.7952 251.679 70.0938 251.679 72.6911V78.8682H250.043V72.7719C250.043 71.8702 249.882 71.2108 249.559 70.7936C249.249 70.3764 248.745 70.1678 248.045 70.1678C247.224 70.1678 246.578 70.4437 246.107 70.9955C245.636 71.5472 245.401 72.3009 245.401 73.2563V78.8682H243.765V72.7719C243.765 71.8568 243.604 71.1973 243.281 70.7936C242.958 70.3764 242.447 70.1678 241.747 70.1678C240.926 70.1678 240.28 70.4437 239.809 70.9955C239.338 71.5472 239.102 72.3009 239.102 73.2563V78.8682H237.467V69.0374H239.082V70.5917C239.378 70.0131 239.789 69.569 240.314 69.2594C240.838 68.9499 241.444 68.7952 242.13 68.7952C243.651 68.7952 244.654 69.4411 245.138 70.7331C245.421 70.1275 245.851 69.6564 246.43 69.32C247.009 68.9701 247.668 68.7952 248.408 68.7952ZM256.503 64.6368V66.0902C256.503 66.6554 256.409 67.1735 256.221 67.6445C256.046 68.1156 255.736 68.5731 255.292 69.0172L254.525 68.4116C255.05 67.8329 255.346 67.261 255.413 66.6958H254.444V64.6368H256.503ZM259.854 64.6368V66.0902C259.854 66.6554 259.76 67.1735 259.572 67.6445C259.397 68.1156 259.087 68.5731 258.643 69.0172L257.876 68.4116C258.401 67.8329 258.697 67.261 258.764 66.6958H257.795V64.6368H259.854Z" fill="#3C405F"/>
</svg>
